<svg xmlns="http://www.w3.org/2000/svg" version="1.1" xmlns:xlink="http://www.w3.org/1999/xlink" xmlns:svgjs="http://svgjs.dev/svgjs" width="720" height="720"><svg version="1.1" id="SvgjsSvg1001" xmlns="http://www.w3.org/2000/svg" xmlns:xlink="http://www.w3.org/1999/xlink" x="0px" y="0px" viewBox="0 0 720 720" style="enable-background:new 0 0 720 720;" xml:space="preserve">
<style type="text/css">
	.st0{fill:#7EC401;}
	.st1{fill:#801580;}
	.st2{fill:#4D5D30;}
</style>
<g>
	<path class="st0" d="M408.69,358.11c0,0-10.05-5.55-9.65-14.72c0.4-9.17,16.17-20.59,32.66-20.59s30.41,7.8,41.67,11.58
		c11.26,3.78,22.2,0.8,29.04-2.01c-9.25,5.23-23.81,20.11-32.5,28.72c-8.69,8.61-20.59,20.19-38.05,22.28
		c-17.46,2.09-25.18-5.39-25.1-11.23c-0.72,6,2.9,15.81,23.49,15.81c20.59,0,34.59-11.58,45.05-23.65
		c10.46-12.07,30.41-32.9,37.4-37.32c-3.54,1.21-12.8,6.29-26.3,5.15c-10.46-0.88-25.97-15.12-54.46-15.12
		c-25.66,0-36.92,17.29-36.92,25.02S404.11,357.71,408.69,358.11z"></path>
	<path class="st1" d="M467.22,337.67c0,0-49.76,11.69-113.13,55.1c-58.24,39.89-75.81,61.1-82.31,75.14
		c-6.49,14.04,2.98,16.14,7.02,17.19c-2.28,0.53-15.61,1.4-15.96-10c-0.35-11.4,21.93-39.65,71.75-74.21
		S436.34,342.87,467.22,337.67z"></path>
	<g>
		<path class="st2" d="M354.31,314.93c-17.64,44.07-34.42,64.59-59.56,94.15c-25.51,30-54.35,54.78-53.66,68.51
			c0.75,14.97,48.29,7.07,48.29,7.07s-24.14,1.57-23.41-10.73c0.88-14.74,34.53-51.99,58.97-89.62
			C349.39,346.67,354.31,314.93,354.31,314.93z"></path>
		<path class="st2" d="M583.88,351.65c-0.21-1.81-0.72-5.31-2-6.51c-0.41-0.38-1.05-0.38-1.46,0.01c-1.15,1.11-1.98,2.44-2.47,3.99
			c-4.35,13.59-5.37,28.12-8.84,42.65c-3.43,14.37-8.25,28.04-14.46,41.01c-0.53,1.1-0.48,1.12,0.15,0.08l1.35-2.24c0,0,0,0,0,0
			c0.08-0.13,0.25-0.17,0.38-0.09c0.17,0.11,0.21,0.29,0.13,0.54c-0.7,2.31-1.81,5.16-3.31,8.54c-3.79,8.53-8.33,16.95-13.62,25.27
			c-4.36,6.84-8.39,12.17-12.11,16c-16.06,16.54-34.82,33.55-54.31,46.98c-22.79,15.69-49.08,27.59-75.86,32.41
			c-13.13,2.37-26.89,3.54-41.27,3.52c-6.35-0.01-11.98-0.29-16.88-0.84c-45.07-5.07-84.6-22.1-118.6-51.1
			c-25.2-21.49-45.79-49.88-58.73-81.57c-7.57-18.54-13.07-37.58-16.52-57.12c-2.94-16.69-2.66-32.55-0.9-49.73
			c0.09-0.89,0.12-1.8,0.11-2.71c0.93-6.27,2.74-17.77,3.62-22.47c1-5.29,4.03-18.22,5.25-23.47c0.09-0.39,0.03-0.43-0.17-0.11
			c-0.08,0.13-0.15,0.32-0.22,0.56c-1.28,4.73-4.34,17.48-5.37,22.93c-0.85,4.47-2.38,14.51-3.2,20.68c0-0.05,0-0.09-0.01-0.14
			c-0.22-2.4-0.3-3.98-0.26-4.74c0.47-7.88,0.89-12.7,1.25-14.46c0.35-1.73,1.2-4.51,2.55-8.34c1.96-5.59,4.34-17.58,8.05-28.42
			c0.7-2.04,2.35-3.31,3.06-5.51c0.19-0.58,1.69-4.72,4.49-12.4c2.4-6.59,5.06-11.8,8.82-17.31c5.79-8.49,11.61-16.96,17.46-25.41
			c6.32-9.12,13.66-17.11,22.57-26.54c0.02-0.02,0.03-0.04,0.03-0.07l6.4-6.21c0.23-0.2,0.43-0.36,0.54-0.45
			c0.93-0.72,1.89-1.45,2.78-2.22c0.11-0.09-0.05-0.04-0.06-0.04c-0.73,0.29-1.39,0.66-2.02,1.06l0.09-0.08
			c-4.54,3.05-7.99,5.67-9.65,6.97c-0.43,0.32-0.8,0.61-1.08,0.86c0,0-0.02,0.01-0.02,0.01s0,0,0,0c-0.08,0.07-0.15,0.13-0.22,0.19
			c-16.39,15.47-30.26,32.85-41.61,52.15c-0.1,0.17-1,1.93-2.68,5.29c-0.76,1.52-1.76,3.23-3,5.14c-1.67,2.59-3.45,6.13-5.34,10.63
			c-2.97,7.09-4.49,10.74-4.58,10.96c-2.59,6.45-4.48,11.82-5.66,16.12c-1.41,5.15-2.28,8.28-2.63,9.4
			c-1.28,4.11-2.16,7.24-2.64,9.38c-2.66,11.92-4.38,23.39-5.18,34.42c0,0.03-0.01,0.06-0.01,0.1c-0.89,6.74-0.57,12.8-0.5,14.17
			c0.02-0.97,0.28-4.23,0.48-6.76c0.02,0.25,0.02,0.49,0.04,0.75c0.26,3.59,0.21,7.12-0.17,10.59c-0.03,0.28-0.05,0.57-0.08,0.85
			c-0.19-2.05-0.38-4.12-0.38-4.12s-0.38,12.32,0.25,15.09c0,0,0,0.01,0,0.01c0.04,0.72,0.08,1.43,0.13,2.12
			c2.97,44.37,17.16,84.44,42.58,120.21c16.34,22.99,37.26,43.02,60.31,58.35c19.14,12.72,39.67,22.23,61.58,28.52
			c41.01,11.79,81.78,11.56,122.31-0.68c48.09-14.53,89.93-46.41,120.13-86.03c22.72-29.81,36.23-67.06,41.08-104.39
			c0.67-5.2,0.99-9.41,0.95-12.63C584.64,360.39,584.36,355.84,583.88,351.65z M217.68,169.91c-0.19,0.23-0.4,0.45-0.58,0.71
			l-0.99,0.88c-0.3,0.17-0.62,0.3-0.95,0.42C216.03,171.23,217,170.46,217.68,169.91z M195.18,191.44
			c5.31-6.74,11.39-12.68,18.24-17.8c0.46-0.35,1.08-0.73,1.71-1.15l-3.23,3.27l0,0c-5.52,4.86-9.32,8.35-11.36,10.44
			c-0.46,0.47-1.1,1.3-1.93,2.51c-0.86,1.26-1.92,2.27-3.18,3.02C194.83,192.09,194.75,191.99,195.18,191.44z"></path>
		<path class="st2" d="M135.51,343.68c0.01,0.06,0.01-0.05,0-0.28C135.5,343.54,135.5,343.65,135.51,343.68z"></path>
		<path class="st2" d="M174.11,325.22c-0.27,6.92,0.45,14.1,2.16,21.53c0.39,1.7,1.07,4.15,2.1,4.97c0.03,0.03,0.07,0.05,0.11,0.07
			c0.51,0.32,1.19,0.17,1.51-0.35c0.89-1.43,1.47-2.88,1.76-4.53c1.05-5.95,1.9-14.09,2.56-24.4c0.69-10.67,2.73-21.85,6.12-33.55
			c0.3-1.04,1.16-3.78,2.59-8.23c0.06-0.19,0.07-0.38,0.01-0.58c-0.27-0.96-0.29-1.82-0.07-2.58c3.45-11.63,8.23-22.63,14.34-33.01
			c2.04-3.46,4.09-6.43,6.17-8.91c12.56-15.03,26.4-30.03,41.77-42.64c17.64-14.47,38.11-25.84,59.95-32.25
			c7.93-2.33,17.64-4.32,29.13-5.97c15.35-2.2,31.35-1.71,47.11,0.54c19.98,2.86,38.82,8.7,56.51,17.53
			c31.53,15.73,56.28,38.7,74.24,68.89c5.6,9.41,10.76,20.14,15.47,32.19c3.79,9.68,6.64,19.42,8.56,29.23
			c1.27,6.46,1.95,14.85,2.06,25.17c0.03,2.53,0.17,4.97,0.41,7.32c0.68,6.41,1.24,10.84,0.69,16.18c-0.3,2.83-1.04,5.24-1.83,8.48
			c-1.36,5.55-1.94,11.62-2.87,16.9c-0.53,2.98-0.84,4.69-2.19,7.17c-0.52,0.96-0.9,1.9-1.14,2.83c-1.46,5.7-2.59,9.96-3.39,12.78
			c-1.1,3.9-3.01,8.24-5.71,13.03c-6.52,11.59-10.56,18.71-12.12,21.36c-3.41,5.79-10.88,15.62-16.9,23.22
			c-1.53,1.78-4.67,4.99-10.01,8.59c-12.25,7.94-28.08,14.37-47.54,14.37c-34.63,0-64.78-35.73-76.25-83.49
			c-10.29-42.83-6.63-95.63,4.92-135.49c-20.02,49.76-29.93,135.17-0.95,189.4c28.98,54.23,70.94,48.44,94.23,37.18
			c10.77-5.21,21-13.55,28.89-21.01l0,0l0.01-0.01c9.17-8.67,15.18-16.16,15.18-16.16c10.13-12.4,18.77-25.98,25.47-40.5
			c0.7-1.54,1.2-3.68,1.88-4.94c1.85-3.46,3.42-7.04,4.7-10.72c0.5-1.43,1.67-5.14,3.51-11.14c0.64-2.09,1.46-5,2.45-8.73
			c1.05-3.99,1.47-8.49,2.38-12.56c0.74-3.28,1.28-6.44,1.64-9.45c1.1-9.45,1.51-18.83,1.21-28.12c-0.08-2.43-1.14-7.18-1.28-10.95
			c-0.11-2.81,0.03-6.08-0.34-8.77c-4.93-35.62-19.75-68.46-43.04-95.64c-26.17-30.55-62.11-52.66-101.53-61.91
			c-35.31-8.28-69.9-6.77-103.77,4.54c-43.3,14.46-79.51,45.15-104.22,83.39C183.6,262.11,175.35,293.69,174.11,325.22z
			 M516.16,444.26c-0.85,1.38-4.33,6.14-4.57,6.41l0,0c0,0,0,0,0,0.01c-0.01,0.01-0.02,0.02-0.03,0.03c0,0,0,0,0,0
			c-0.16,0.21-2.13,2.11-2.51,2.54c-2.39,2.68-4.15,4.25-6.86,6.45c2.45-2.69,7.09-7.89,8.93-9.8c0.77-0.8,1.46-1.64,2.07-2.52
			c0.43-0.63,1.4-2.71,2.5-3.55C516.62,443.14,516.77,443.28,516.16,444.26z"></path>
	</g>
</g>
</svg><style>@media (prefers-color-scheme: light) { :root { filter: none; } }
@media (prefers-color-scheme: dark) { :root { filter: none; } }
</style></svg>