<svg xmlns="http://www.w3.org/2000/svg" width="364" height="350" fill="none"><path fill="#CED6D2" d="M351.662 175.678c-4.407-4.603-11.988-5.598-17.985-6.251-8.979-.995-18.115-.715-27.096-.093-9.323.622-18.647 1.741-27.877 3.172-4.911.747-9.853 1.555-14.701 2.675 3.579-5.008 6.537-10.419 9.184-15.955 4.174-8.74 7.54-17.853 10.284-27.121 2.527-8.522 4.494-17.262 5.56-26.094.691-5.91 1.35-12.69-.601-18.475-1.982-5.91-8.163-8.18-14.037-7.93-8.235.341-16.039 4.602-22.725 9.112-6.903 4.634-13.28 10.108-19.097 16.049-5.569 5.691-9.988 12.285-14.284 18.972-6.101 9.517-11.705 19.345-16.936 29.329-2.834 5.38-5.668 10.823-8.16 16.359-1.173-6.811-3.155-13.498-5.571-19.936-3.873-10.419-8.865-20.434-14.697-29.889-5.614-9.082-12.037-17.759-19.548-25.348-5.991-6.065-12.883-11.756-20.928-14.742-6.337-2.364-13.577-2.364-19.299 1.617-5.256 3.67-6.753 9.33-7.164 15.458-.506 7.993.728 16.142 2.18 23.979 1.699 9.206 4.05 18.288 6.62 27.276a507.254 507.254 0 0 0 7.37 23.358c.65 1.928 1.269 3.887 1.92 5.847-4.192-2.613-8.82-4.603-13.355-6.345-8.946-3.39-18.359-5.66-27.804-7.091-9.32-1.431-18.86-2.146-28.276-1.337-7.147.622-15.042 1.99-20.92 6.438-7.308 5.536-10.645 16.484-7.796 25.13 3.624 10.979 14.399 18.194 24.337 22.922 10 4.758 20.749 7.962 31.467 10.606 11.96 2.954 24.107 5.162 36.318 6.842 23.768 3.297 48.035 5.038 72.025 3.701 2.455-.124 4.879-.311 7.334-.529.125 0 .249-.031.342-.062 10.69.156 21.38-.218 31.914-.715 17.216-.809 34.556-1.369 51.495-4.728 13.521-2.675 26.577-7.744 39.168-13.311 10.54-4.666 21.36-10.637 28.176-20.279 3.206-4.54 5.418-10.139 5.704-15.706.22-2.581-.772-5.007-2.541-6.905Z"/><path fill="#F7F7F7" d="m59.73 169.197.008-7.477c-1.46.062-2.921.124-4.348.248l-.004 2.854c-.016 15.048.531 30.095.714 45.143l.09 8.873c1.46.559 2.92 1.086 4.38 1.613l-.092-7.446c-.214-17.312-.695-31.894-.749-43.808ZM97.054 166.436c-1.282-.34-2.563-.679-3.845-.987.192 11.259.439 25.17.683 41.766.108 7.495.304 14.991.645 22.456 1.282.278 2.563.524 3.845.802a735.953 735.953 0 0 1-.563-17.922c-.304-15.361-.49-30.723-.765-46.115ZM138.754 151.124c-1.328-15.852-3.191-34.346-4.279-50.199-.559-7.832-.942-13.054-.963-20.95-.239-.093-.478-.186-.687-.279a24.231 24.231 0 0 0-3.227-.995c-.115 22.38 2.76 44.853 4.798 67.014 1.506 16.381 2.056 32.762 2.456 49.204.2 8.734.429 17.469.779 26.172.203 5.222.406 10.381.49 15.603 1.286.125 2.601.249 3.886.373-.166-12.246-.81-24.493-1.096-36.771-.46-16.442-.771-32.823-2.157-49.172ZM180.542 164.122c.223-9.85.416-19.699.549-29.548a224.38 224.38 0 0 0-3.883-7.644c-.069 7.644-.263 17.959-.52 30.978a8961.786 8961.786 0 0 1-1.179 49.371c-.255 10.284-.54 20.538-.825 30.822 1.338 0 2.675-.031 3.983-.031l.665-24.546c.444-16.467.857-32.935 1.21-49.402ZM226.667 158.003c-.176-15.035-.61-30.071-.883-45.137a138.944 138.944 0 0 0-4.092 5.58c.184 8.463.493 19.623.703 33.481.24 15.903.094 31.807-.31 47.71-.335 12.339-.703 24.646-.684 36.985 1.383-.062 2.767-.093 4.15-.155.044-10.696.346-21.36.647-31.993.339-15.501.645-30.97.469-46.471ZM271.114 174.442c-1.475.249-2.95.53-4.426.812-1.329 19.984-2.458 40.001-2.982 60.017 1.475-.156 2.95-.281 4.425-.469.14-5.433.314-10.898.521-16.331.519-14.676 1.44-29.353 2.462-44.029ZM269.346 127.604c-.414 9.4-1.014 18.768-1.614 28.137-.348 5.367-.695 10.703-1.042 16.07 1.648-2.513 3.141-5.15 4.572-7.787l.189-2.574c.632-9.276 1.232-18.521 1.739-27.797.475-9.058.641-18.148.93-27.207.289-8.655 1.541-17.28 2.047-25.935.031-.341.032-.651.063-.993h-1.118c-.993.031-1.987.156-2.981.28-.412 7.383-1.32 14.736-1.825 22.119-.661 8.562-.578 17.155-.96 25.687ZM313.718 168.534c-1.331.063-2.662.125-3.963.219.464 18.085.202 36.201-.06 54.318 1.301-.531 2.603-1.062 3.874-1.625.14-17.647.644-35.295.149-52.912Z"/></svg>