<svg width="32" height="32" viewBox="0 0 32 32" fill="none" xmlns="http://www.w3.org/2000/svg">
<g clip-path="url(#clip0_276_583)">
<path d="M3.99983 28C3.99983 28 17.1118 23.348 20.9118 19.5467C22.0332 18.4248 22.6631 16.9036 22.6631 15.3174C22.6631 13.7312 22.0332 12.2099 20.9118 11.088C20.3567 10.5326 19.6976 10.0919 18.9722 9.79131C18.2467 9.49068 17.4691 9.33594 16.6838 9.33594C15.8985 9.33594 15.121 9.49068 14.3955 9.79131C13.67 10.0919 13.0109 10.5326 12.4558 11.088C8.6425 14.9027 3.99316 28.0067 3.99316 28.0067L3.99983 28Z" stroke="#4C5C2F" stroke-width="2" stroke-linecap="round" stroke-linejoin="round"/>
<path d="M12 17.3334L10 15.3334" stroke="#4C5C2F" stroke-width="2" stroke-linecap="round" stroke-linejoin="round"/>
<path d="M21.3332 18.6667L18.6665 16" stroke="#4C5C2F" stroke-width="2" stroke-linecap="round" stroke-linejoin="round"/>
<path d="M29.3335 10.6667C29.3335 10.6667 27.8135 8 25.3335 8C23.4588 8 21.3335 10.6667 21.3335 10.6667C21.3335 10.6667 22.8535 13.3333 25.3335 13.3333C27.8135 13.3333 29.3335 10.6667 29.3335 10.6667Z" stroke="#4C5C2F" stroke-width="2" stroke-linecap="round" stroke-linejoin="round"/>
<path d="M21.3332 2.66663C21.3332 2.66663 18.6665 4.18663 18.6665 6.66663C18.6665 9.14663 21.3332 10.6666 21.3332 10.6666C21.3332 10.6666 23.9998 8.56396 23.9998 6.66663C23.9998 4.18663 21.3332 2.66663 21.3332 2.66663Z" stroke="#4C5C2F" stroke-width="2" stroke-linecap="round" stroke-linejoin="round"/>
</g>
<defs>
<clipPath id="clip0_276_583">
<rect width="32" height="32" fill="white"/>
</clipPath>
</defs>
</svg>
