<svg id="Capa_1" enable-background="new 0 0 512.717 512.717" height="512" viewBox="0 0 512.717 512.717" width="512" xmlns="http://www.w3.org/2000/svg"><g><g><path d="m422.508 202.046c-15.505-31.684-37.045-64.626-64.021-97.913-45.648-56.326-102.128-103.37-102.128-103.37l-10.667 277.287 10.667 234.667c108.047 0 195.949-87.902 195.949-195.949 0-35.717-10.026-74.315-29.8-114.722z" fill="#cf3f59"/><g fill="#e26058"><path d="m154.231 104.133c-26.977 33.287-48.517 66.229-64.021 97.913-19.773 40.407-29.8 79.005-29.8 114.722 0 108.047 87.903 195.949 195.95 195.949v-511.9c-.001 0-62.589 54.526-102.129 103.316z"/><path d="m256.359.763v.055c1.196-1.043 1.281-1.117 0-.055z"/></g></g><g><path d="m179.595 310.417c0-14.138 3.918-27.832 11.083-39.69l4.407 22.894 29.459-5.67-12.423-64.547h-65.531v30h19.514c-10.672 16.897-16.509 36.628-16.509 57.013 0 58.87 47.894 106.764 106.764 106.764v-30c-42.327 0-76.764-34.436-76.764-76.764z" fill="#fff7f7"/><path d="m346.614 367.4c10.673-16.897 16.51-36.628 16.51-57.013 0-58.87-47.895-106.764-106.765-106.764v30c42.328 0 76.765 34.436 76.765 76.764 0 14.138-3.918 27.832-11.083 39.69l-4.407-22.894-29.459 5.67 12.423 64.547h65.53v-30z" fill="#ebe1dc"/></g></g></svg>