<svg id="Capa_1" enable-background="new 0 0 512.014 512.014" height="512" viewBox="0 0 512.014 512.014" width="512" xmlns="http://www.w3.org/2000/svg"><g><g><path d="m283.072 323.418c-10.49 0-18.994-8.504-18.994-18.994v-28.199l22.552-6.365 15.435 6.365v28.199c.001 10.49-8.503 18.994-18.993 18.994z" fill="#fbbd80"/><path d="m274.583 276.225h31.894c2.761 0 5-2.239 5-5v-119.32l-6.294-21.024 6.294-22.643-36.894-15.489z" fill="#98db7c"/><path d="m330.788 51.723-33.258 6.23-7.41 26.29 21.357 23.996 24.047-18.847z" fill="#f4aa73"/><path d="m232.247 465.691h-32.066l4.092-131.09-72.992-104.454 65.925-12.413 33.352 53.416 9.094 1.434-1.218 11.181 25.445 35.92-23.203 126.006z" fill="#e8e8e8"/><path d="m214.426 441.287 11.724-115.605c.725-7.149-1.14-14.321-5.256-20.211l-57.531-82.329-32.081 7.005 72.992 104.454-13.294 131.09 23.524 7.063 22.491-7.063 3.683-20h-22.271c-2.37 0-4.22-2.047-3.981-4.404z" fill="#dcdbdd"/><path d="m144.588 465.691h-36.255l43.064-139.831-47.149-73.362c-18.455-30.852-18.115-73.691 9.116-97.163l42.799 35.163 26.943 48.819 26.902 67.022c4.239 10.561 3.875 22.413-1.004 32.695l-50.613 106.657z" fill="#f9f8f9"/><path d="m311.474 108.236v43.67c-3.99 5.47-8.85 11.02-14.7 16.55-5.19 4.91-11.39 8.62-18.13 11l-4.06 1.43v-88.14z" fill="#86cc72"/><path d="m279.852 162.059c29.435-24.699 31.531-46.137 31.625-53.82l-13.947-50.286s-9.111-5.383-24.999-7.757c0 0-16.684 1.055-27.007 2.175-13.913 1.509-28.198 6.903-46.128 16.298-35.072 18.379-81.191 86.666-81.191 86.666l66.894 76.227s4.596-9.532 12.105-13.831c18.405-23.691 43.319-41.785 71.944-51.893z" fill="#98db7c"/><path d="m369.292 23.998-12.483 4.663-22.594 8.44c-13.441 22.825-3.846 51.322 9.995 71.635 12.502 16.856 58.446-1.448 71.793-12.583l6.225-41.177z" fill="#ffd18d"/><path d="m350.634 40.746 32.052 6.788c10.534 2.231 19.197 9.78 22.901 19.954l10.312 28.331.105.335c16.247-13.816 23.331-35.617 16.113-55.449-7.469-20.521-28.023-32.815-50.214-32.091 0 0-11.911 3.276-17.91 5.459-13.131 4.779-19.074 11.379-25.277 22.511z" fill="#857e87"/><path d="m354.215 32.847c5.898-10.584 15.473-19.294 27.687-24.233-5.986.195-12.09 1.337-18.089 3.521-13.131 4.779-23.396 13.836-29.599 24.967.368.345 15.697 3.468 16.42 3.644.977-2.722 2.169-5.366 3.581-7.899z" fill="#766e7a"/><path d="m131.237 441.724 36.58-107.373c1.895-5.561 1.248-11.675-1.768-16.717l-46.843-78.309c-13.407-22.413-11.937-46.273 8.056-67.252l-.079-11.19-13.793-5.628c-27.231 23.473-33.663 63.21-15.208 94.062l44.95 75.143c.429.717.539 1.579.305 2.381l-40.552 138.852 23.915 7.063 22.099-7.063 9.491-20h-24.314c-2.055-.002-3.502-2.023-2.839-3.969z" fill="#e8e8e8"/><path d="m255.868 323.418c-10.49 0-18.994-8.504-18.994-18.994v-28.199l18.994-8.662 18.994 8.662v28.199c0 10.49-8.504 18.994-18.994 18.994z" fill="#ffd18d"/><path d="m148.309 158.773c-1.734-2.09-1.846-5.082-.277-7.299 10.649-15.045 51.3-70.626 81.53-86.468 16.081-8.427 30.787-12.797 43.688-14.698-17.684-2.778-44.027-1.892-75.688 14.698-35.072 18.379-84.172 90.248-84.172 90.248l69.716 84.064c4.126-7.614 8.85-14.825 14.1-21.583z" fill="#86cc72"/><path d="m193.269 469.52 1.472 27.288c0 2.085 1.703 3.775 3.805 3.775l78.319.447c2.101 0 3.805-1.69 3.805-3.775l-1.244-13.782c-5.798-10.592-17.107-17.783-30.109-17.783h-38.337z" fill="#857e87"/><path d="m214.784 483.446c-2.101 0-3.805-1.69-3.805-3.775v-13.979h-20v33.979c0 2.085 1.703 3.775 3.805 3.775h84.969c2.101 0 3.805-1.69 3.805-3.775 0-5.876-1.487-11.375-4.133-16.196z" fill="#766e7a"/><path d="m104.588 468.073.791 28.735c0 2.085 1.703 3.775 3.805 3.775l78.809-.426c2.101 0 3.805-3.776 3.805-3.776 0-5.864-.466-12.909-.466-12.909-5.798-10.592-17.107-17.783-30.109-17.783h-38.337z" fill="#857e87"/><path d="m126.69 483.446c-2.101 0-3.805-1.69-3.805-3.775v-13.979h-20v18.464 15.515c0 2.085 1.703 3.775 3.805 3.775h88.094c2.101 0 .68-1.69.68-3.775 0-5.876-1.504-11.403-4.149-16.224h-64.625z" fill="#766e7a"/><path d="m277.649 276.225h-45.654c-2.995 0-5.423-2.426-5.427-5.421l-.165-147.598c-.018-15.662 12.674-28.367 28.336-28.367 15.649 0 28.336 12.686 28.336 28.336v147.707c-.045 2.964-2.461 5.343-5.426 5.343z" fill="#b8eb7c"/></g><g><path d="m436.869 37.07c-5.311-14.592-16.417-26.051-31.271-32.264-14.645-6.125-31.21-6.405-46.644-.788-15.551 5.66-28.018 16.765-35.104 31.271-1.526 3.123-2.748 6.334-3.701 9.598l-26.835 6.208c-10.695-5.114-50.356-20.005-104.441 8.337-8.271 4.335-17.776 11.644-28.254 21.725-2.985 2.871-3.077 7.619-.205 10.604 2.873 2.985 7.62 3.076 10.604.204 9.455-9.096 17.804-15.571 24.817-19.246 47.092-24.678 80.844-12.776 90.141-8.514l12.766 46.028c-.408 10.083-5.061 20.861-13.375 31.37v-17.359c0-19.76-16.076-35.836-35.836-35.836-9.58 0-18.583 3.732-25.354 10.511-6.77 6.777-10.493 15.785-10.482 25.365l.069 61.932c-14.642 11.618-27.025 25.412-36.93 41.141l-59.224-71.414c5.316-7.47 16.661-22.984 30.113-38.858 2.678-3.16 2.287-7.893-.873-10.57s-7.893-2.287-10.571.873c-17.611 20.781-31.343 40.435-33.881 44.109-26.877 23.844-35.009 62.934-19.714 95.504 1.277 2.719 3.976 4.313 6.793 4.313 1.068 0 2.153-.229 3.183-.713 3.75-1.761 5.361-6.228 3.601-9.978-11.525-24.54-6.741-53.622 11.339-73.25l63.772 76.898 26.464 65.932c3.45 8.594 3.151 18.32-.819 26.686l-58.067 122.371h-31.268l38.115-130.506c.585-2.004.309-4.161-.763-5.953l-31.481-52.627c-2.126-3.554-6.729-4.71-10.287-2.586-3.555 2.127-4.712 6.732-2.586 10.287l29.8 49.816-39.96 136.826c-.161.593-.343 1.287-.342 2.387v33.835c0 6.217 5.071 11.275 11.305 11.275h173.063c6.233 0 11.305-5.059 11.305-11.275 0-22.872-18.725-41.479-41.741-41.479h-3.316l7.697-41.798c.75-4.074-1.944-7.984-6.018-8.734-4.073-.755-7.984 1.943-8.734 6.018l-8.197 44.515h-31.476l10.375-103.019 6.132-12.922c5.758-12.134 6.19-26.241 1.188-38.705l-25.568-63.697c1.942-3.397 4.007-6.701 6.188-9.913l21.473 34.576.008 6.729c.007 6.134 4.465 11.237 10.305 12.279v20.905c0 14.046 10.989 25.568 24.821 26.435l-8.974 48.736c-.75 4.074 1.944 7.984 6.018 8.734 3.171.593 7.406-1.298 8.734-6.018l10.092-54.804c3.928 2.22 8.378 3.409 13.007 3.409 14.609 0 26.494-11.885 26.494-26.493v-21.101c5.401-1.38 9.412-6.273 9.412-12.098v-159.318l15.285-11.883c4.03 8.424 8.779 14.878 16.076 18.367 4.002 1.914 8.447 2.785 13.465 2.785 10.436-.001 23.34-3.771 39.832-9.773 15.434-5.617 27.944-16.479 35.225-30.585 7.384-14.308 8.526-30.224 3.215-44.817zm-331.69 437.19h50.837c13.469 0 24.644 9.911 26.478 22.755h-77.314v-22.755zm165.408 22.754h-73.007c-.48-5.335-1.982-10.379-4.308-14.944v-7.811h50.837c13.469.001 24.644 9.912 26.478 22.755zm-92.248-31.297c-5.567-3.644-14.683-6.581-22.785-6.457l29.75-62.69zm56.452-356.198c3.937-3.941 9.171-6.111 14.741-6.111 11.489 0 20.836 9.347 20.836 20.836v79.857c0 4.143 3.358 7.5 7.5 7.5s7.5-3.357 7.5-7.5v-40.455c5.394-5.048 9.801-9.99 13.402-14.767v120.914h-13.402v-30.692c0-4.143-3.358-7.5-7.5-7.5s-7.5 3.357-7.5 7.5v30.692h-41.509l-.162-145.527c-.006-5.569 2.158-10.806 6.094-14.747zm-32.686 108.708c3.652-4.293 7.549-8.376 11.683-12.243l.035 31.111zm37.062 87.266v-20.699h22.987v20.699c0 6.337-5.156 11.493-11.494 11.493-6.336 0-11.493-5.156-11.493-11.493zm38.698 11.493c-1.076 0-2.127-.154-3.136-.439 1.553-3.367 2.426-7.11 2.426-11.054v-20.699h12.204v20.699c0 6.337-5.156 11.493-11.494 11.493zm32.641-220.471-8.862-31.952 16.134-3.733c-.068 7.077 1.134 14.192 3.639 21.073.592 1.627 1.171 3.21 1.747 4.77zm82.791 1.862c-23.185 8.439-35.266 10.626-41.696 7.552-6.312-3.019-10.226-13.045-16.089-29.155-3.832-10.528-3.612-21.781.545-32.022l42.781 9.05c8.061 1.708 14.568 7.384 17.407 15.183l8.548 23.486c-3.508 2.404-7.36 4.4-11.496 5.906zm27.026-23.369c-1.089 2.11-2.34 4.122-3.728 6.032l-6.255-17.186c-4.621-12.695-15.235-21.938-28.396-24.727l-37.408-7.914c5.215-5.798 11.882-10.308 19.548-13.099 5.703-2.076 11.591-3.112 17.408-3.112 6.3 0 12.516 1.216 18.317 3.643 10.947 4.579 19.103 12.944 22.964 23.557 3.863 10.61 2.993 22.262-2.45 32.806z"/><path d="m75.454 317.72 18.433 11.22c1.218.742 2.563 1.095 3.892 1.095 2.531 0 5.001-1.281 6.414-3.602 2.153-3.538 1.031-8.152-2.507-10.306l-18.433-11.22c-3.539-2.155-8.152-1.03-10.306 2.507-2.154 3.538-1.032 8.152 2.507 10.306z"/><path d="m106.125 346.974c-1.822-3.72-6.314-5.26-10.034-3.438l-19.19 9.395c-3.72 1.821-5.26 6.313-3.438 10.034 1.302 2.659 3.968 4.204 6.742 4.204 1.107 0 2.231-.246 3.292-.766l19.19-9.395c3.72-1.821 5.26-6.313 3.438-10.034z"/><path d="m287.658 350.512c-1.761-3.749-6.229-5.359-9.977-3.601-3.75 1.761-5.361 6.228-3.601 9.978l8.771 18.678c1.277 2.719 3.976 4.313 6.793 4.313 1.068 0 2.153-.229 3.183-.713 3.75-1.761 5.361-6.228 3.601-9.978z"/><path d="m329.78 344.831-18.166-11.397c-3.509-2.198-8.137-1.141-10.339 2.367-2.202 3.509-1.142 8.138 2.367 10.34l18.166 11.397c1.239.776 2.617 1.147 3.979 1.147 2.496 0 4.936-1.245 6.36-3.515 2.202-3.508 1.142-8.137-2.367-10.339z"/></g></g></svg>