<svg width="50" height="53" viewBox="0 0 50 53" fill="none" xmlns="http://www.w3.org/2000/svg">
<path d="M9.29373 8.57518C13.6379 4.74616 19.1576 2.655 25 2.655V1.50701C25 1.22743 25.2273 1.00009 25.5069 1.00009C25.6381 1.00009 25.7639 1.05129 25.8592 1.14244L28.6754 3.86443C28.9283 4.10816 28.9283 4.51267 28.6754 4.7564L25.8592 7.47839C25.7639 7.56964 25.6381 7.62084 25.5069 7.62084C25.2273 7.62084 25 7.39452 25 7.11382V5.96594C14.4807 5.96594 5.78934 13.9372 4.64545 24.1565L1.34485 23.881C1.84665 19.1714 3.72583 14.7638 6.78781 11.1343" stroke="#4C5C2F" stroke-width="2" stroke-miterlimit="10" stroke-linecap="round" stroke-linejoin="round"/>
<path d="M43.08 36.0645C44.271 33.835 45.0617 31.362 45.3545 28.7402L48.6551 29.0158C48.0816 34.4004 45.7078 39.3897 41.8245 43.273C37.33 47.7666 31.3554 50.2417 25 50.2417V51.3897C25 51.6694 24.7726 51.8967 24.4931 51.8967C24.362 51.8967 24.236 51.8455 24.1409 51.7544L21.3247 49.0324C21.0716 48.7887 21.0716 48.3841 21.3247 48.1404L24.1409 45.4184C24.236 45.3272 24.362 45.276 24.4931 45.276C24.7726 45.276 25 45.5023 25 45.7829V46.9309C31.5387 46.9309 37.3718 43.8505 41.1231 39.0651" stroke="#4C5C2F" stroke-width="2" stroke-miterlimit="10" stroke-linecap="round" stroke-linejoin="round"/>
<path d="M37.7149 22.3796H40.5167V30.517H29.0687V41.9651H20.9313V30.517H9.48322V22.3796H20.9313V10.9316H29.0687V22.3796H34.1307" stroke="#4C5C2F" stroke-width="2" stroke-miterlimit="10" stroke-linecap="round" stroke-linejoin="round"/>
<path d="M49 10.7242H45.6897V7.41387H42.3793V10.7242H39.0689V14.0345H42.3793V17.3448H45.6897V14.0345H49V10.7242Z" stroke="#4C5C2F" stroke-width="2" stroke-miterlimit="10" stroke-linecap="round" stroke-linejoin="round"/>
<path d="M10.9311 38.8623H7.62075V35.5519H4.31043V38.8623H1V42.1726H4.31043V45.4829H7.62075V42.1726H10.9311V38.8623Z" stroke="#4C5C2F" stroke-width="2" stroke-miterlimit="10" stroke-linecap="round" stroke-linejoin="round"/>
<path d="M14.0775 46.7243V50.8622" stroke="#4C5C2F" stroke-width="2" stroke-miterlimit="10" stroke-linecap="round" stroke-linejoin="round"/>
<path d="M16.1465 48.7932H12.0086" stroke="#4C5C2F" stroke-width="2" stroke-miterlimit="10" stroke-linecap="round" stroke-linejoin="round"/>
<path d="M35.9225 6.17249V2.0346" stroke="#4C5C2F" stroke-width="2" stroke-miterlimit="10" stroke-linecap="round" stroke-linejoin="round"/>
<path d="M33.8536 4.10352H37.9915" stroke="#4C5C2F" stroke-width="2" stroke-miterlimit="10" stroke-linecap="round" stroke-linejoin="round"/>
</svg>
