<svg id="Capa_1" enable-background="new 0 0 512 512" viewBox="0 0 512 512" xmlns="http://www.w3.org/2000/svg"><g><g><path d="m353.04 256c0 27.46-36.86 50.13-84.56 53.54-54.76-14.428-54.76-80.709-19.7-107.37 2.38-.1 4.79-.15 7.22-.15 53.59 0 97.04 24.17 97.04 53.98z" fill="#fce3a0"/><path d="m268.48 309.54c-4.09.29-8.25.44-12.48.44-53.59 0-97.04-24.17-97.04-53.98 0-28.46 39.6-51.78 89.82-53.83-18.52 31.29-14.79 78.68 19.7 107.37z" fill="#f9d171"/><path d="m359.22 187.31c0 29.15-22.35 52.76-51.03 54.67-83.651-37.058-104.27-183.559-42.46-222.99h25.46c9.33 0 16.89 7.56 16.89 16.89v78.54c0 9.48 5.84 18.09 14.76 21.28 21.2 7.56 36.38 27.81 36.38 51.61z" fill="#f3f5fc"/><path d="m308.19 241.98c-1.15.08-2.31.12-3.48.13-15.31.08-29.17-6.12-39.16-16.18-5.27-5.31-13.83-5.31-19.1 0-9.99 10.06-23.85 16.26-39.17 16.18-30.32-.16-54.5-24.48-54.5-54.8 0-23.8 15.18-44.05 36.38-51.61 8.92-3.19 14.76-11.8 14.76-21.28v-78.54c0-9.33 7.56-16.89 16.89-16.89h44.92c-40.75 64.05-33.1 165.02 42.46 222.99z" fill="#d7ddf5"/><path d="m359.22 324.69c0 23.8-15.18 44.05-36.38 51.61-8.92 3.19-14.76 11.8-14.76 21.28v78.54c0 7.11-4.39 13.19-10.61 15.68-83.75-30.984-102.849-162.32-52.13-206.82.38.36.75.72 1.11 1.09 5.27 5.31 13.83 5.31 19.1 0 9.99-10.06 23.85-16.26 39.16-16.18 30.33.16 54.51 24.48 54.51 54.8z" fill="#f3f5fc"/><path d="m297.47 491.8c-1.94.78-4.06 1.21-6.28 1.21h-70.38c-9.33 0-16.89-7.56-16.89-16.89v-78.54c0-9.48-5.84-18.09-14.76-21.28-21.2-7.56-36.38-27.81-36.38-51.61 0-30.32 24.18-54.64 54.5-54.8 14.76-.08 28.17 5.68 38.06 15.09-30 64.03-17.69 153.7 52.13 206.82z" fill="#d7ddf5"/><path d="m397.748 286.019c-5.25 0-10.017-3.214-12.143-8.189-2.082-4.87-1.061-10.315 2.663-14.21l32.358-33.848-21.726-5.585c-6.275-1.613-10.977-6.558-12.273-12.906s1.093-12.74 6.235-16.683l78.635-60.307c2.385-1.829 5.162-2.796 8.03-2.796 4.924 0 9.581 2.906 11.864 7.402 2.257 4.445 1.81 9.553-1.195 13.665l-28.178 38.556 29.861 7.675c6.692 1.72 11.459 7.037 12.441 13.876s-2.095 13.282-8.032 16.816l-91.718 54.605c-2.117 1.263-4.476 1.929-6.822 1.929z" fill="#ff6e80"/><path d="m20.706 131.497c-5.25 0-10.017 3.214-12.143 8.189-2.082 4.87-1.061 10.315 2.663 14.21l32.358 33.848-21.726 5.585c-6.275 1.613-10.977 6.558-12.273 12.906s1.093 12.74 6.235 16.683l78.635 60.307c2.385 1.829 5.162 2.796 8.03 2.796 4.924 0 9.581-2.906 11.864-7.402 2.257-4.445 1.81-9.553-1.195-13.665l-28.178-38.556 29.861-7.675c6.692-1.72 11.459-7.037 12.441-13.876s-2.095-13.282-8.032-16.816l-91.718-54.605c-2.117-1.263-4.476-1.929-6.822-1.929z" fill="#fd5c6f"/></g><g><path d="m511.739 211.606c-1.421-9.893-8.317-17.585-17.997-20.072l-19.142-4.92 21.648-29.621c4.705-6.439 5.388-14.471 1.827-21.484-3.549-6.99-10.831-11.506-18.551-11.506-4.533 0-8.887 1.502-12.593 4.345l-78.632 60.304c-7.435 5.702-10.891 14.95-9.018 24.133 1.875 9.183 8.677 16.336 17.753 18.668l9.322 2.396-23.506 24.589c-5.835 6.102-7.421 14.662-4.139 22.339 3.307 7.74 10.781 12.741 19.038 12.741 3.696 0 7.382-1.031 10.658-2.981l91.715-54.603c8.586-5.114 13.038-14.435 11.617-24.328zm-19.291 11.438-91.714 54.603c-.957.569-1.989.87-2.985.87-2.243 0-4.302-1.427-5.246-3.637-.895-2.093-.451-4.365 1.187-6.079l32.356-33.846c1.841-1.925 2.522-4.681 1.791-7.242s-2.766-4.541-5.344-5.204l-21.727-5.585c-3.471-.893-6.073-3.629-6.79-7.14-.717-3.513.605-7.05 3.45-9.232l78.632-60.304c1.079-.827 2.244-1.247 3.465-1.247 2.095 0 4.176 1.325 5.177 3.298.98 1.931.78 4.006-.563 5.844l-28.177 38.554c-1.467 2.009-1.844 4.614-1.005 6.955.839 2.342 2.784 4.115 5.193 4.734l29.859 7.674c3.759.967 6.333 3.837 6.884 7.678.553 3.843-1.108 7.321-4.443 9.306z"/><path d="m123.095 181.588-91.713-54.602c-3.276-1.952-6.963-2.983-10.66-2.983-8.257 0-15.73 5.001-19.038 12.74-3.282 7.678-1.696 16.239 4.138 22.341l23.506 24.588-9.321 2.396c-9.077 2.332-15.879 9.485-17.754 18.668-1.874 9.183 1.582 18.431 9.018 24.133l78.632 60.304c3.706 2.843 8.06 4.345 12.593 4.345 7.72 0 15.001-4.516 18.551-11.505 3.561-7.015 2.878-15.047-1.827-21.485l-21.648-29.62 19.143-4.92c9.679-2.489 16.575-10.18 17.996-20.072s-3.029-19.216-11.616-24.328zm-3.229 22.193c-.552 3.842-3.126 6.712-6.884 7.678l-29.859 7.674c-2.409.619-4.354 2.392-5.193 4.734-.839 2.341-.463 4.946 1.005 6.955l28.178 38.554c1.343 1.838 1.543 3.913.562 5.844-1.001 1.972-3.082 3.297-5.177 3.297-1.221 0-2.386-.42-3.465-1.247l-78.633-60.305c-2.845-2.181-4.166-5.718-3.449-9.23.717-3.513 3.319-6.249 6.791-7.141l21.726-5.585c2.579-.663 4.613-2.643 5.345-5.204s.05-5.317-1.791-7.242l-32.356-33.845c-1.639-1.714-2.083-3.987-1.187-6.08.944-2.209 3.003-3.637 5.246-3.637.996 0 2.027.301 2.984.871l91.715 54.603c3.332 1.986 4.993 5.465 4.442 9.306z"/><path d="m325.365 128.639c-5.849-2.086-9.779-7.797-9.779-14.21v-29.88c0-4.142-3.357-7.5-7.5-7.5s-7.5 3.357-7.5 7.5v29.88c0 12.739 7.932 24.127 19.738 28.338 18.78 6.701 31.398 24.602 31.398 44.547 0 26.385-20.664 47.161-47.045 47.299-.086.001-.17.001-.255.001-12.691 0-24.598-4.956-33.547-13.968-3.968-3.997-9.249-6.197-14.87-6.197s-10.901 2.201-14.867 6.196c-8.953 9.014-20.857 13.969-33.547 13.969-.086 0-.173 0-.258-.001-26.38-.14-47.044-20.915-47.044-47.299 0-19.944 12.619-37.846 31.398-44.546 11.806-4.212 19.738-15.6 19.738-28.339v-78.539c0-5.178 4.213-9.39 9.39-9.39h70.38c5.178 0 9.39 4.213 9.39 9.39v13.661c0 4.142 3.357 7.5 7.5 7.5s7.5-3.357 7.5-7.5v-13.661c0-13.449-10.941-24.39-24.39-24.39h-70.38c-13.449 0-24.39 10.941-24.39 24.39v78.539c0 6.414-3.93 12.124-9.779 14.211-24.737 8.825-41.358 32.404-41.358 58.673 0 15.748 5.738 30.566 16.204 42.034-6.58 8.216-10.025 17.311-10.025 26.652 0 9.351 3.451 18.456 10.045 26.678-9.584 10.514-15.613 24.35-16.168 39.691-.149 4.138 3.085 7.616 7.224 7.765.092.003.184.005.275.005 4.016 0 7.343-3.182 7.49-7.229.918-25.392 21.562-45.389 46.998-45.522.086-.001.171-.001.258-.001 12.69 0 24.596 4.955 33.545 13.967 3.968 3.997 9.248 6.198 14.868 6.198 5.622 0 10.903-2.201 14.87-6.197 8.951-9.013 20.856-13.968 33.547-13.968.085 0 .17 0 .255.001 26.381.138 47.045 20.914 47.045 47.299 0 19.944-12.618 37.846-31.397 44.546-11.807 4.212-19.739 15.6-19.739 28.339v78.539c0 5.178-4.213 9.39-9.39 9.39h-70.38c-5.178 0-9.39-4.213-9.39-9.39v-78.539c0-12.739-7.932-24.127-19.737-28.338-9.205-3.284-17.071-9.262-22.747-17.288-2.391-3.384-7.072-4.186-10.454-1.793-3.382 2.392-4.183 7.071-1.792 10.453 7.467 10.561 17.825 18.429 29.953 22.756 5.848 2.086 9.778 7.797 9.778 14.21v78.539c0 13.449 10.941 24.39 24.39 24.39h70.38c13.449 0 24.39-10.941 24.39-24.39v-78.539c0-6.414 3.93-12.124 9.78-14.211 24.736-8.825 41.357-32.404 41.357-58.673 0-15.748-5.739-30.566-16.204-42.034 6.581-8.216 10.025-17.311 10.025-26.652s-3.445-18.437-10.025-26.652c10.465-11.468 16.204-26.286 16.204-42.034.002-26.271-16.619-49.85-41.356-58.676zm-20.944 133.748c-16.716 0-32.399 6.527-44.189 18.4-1.131 1.139-2.631 1.766-4.225 1.766s-3.094-.627-4.225-1.767c-11.791-11.873-27.471-18.399-44.187-18.399-.113 0-.228.001-.34.001-12.73.067-24.543 3.919-34.372 10.497-4.254-5.42-6.414-11.079-6.414-16.885 0-5.795 2.152-11.443 6.389-16.854 10.065 6.743 21.931 10.4 34.396 10.465.114 0 .227.001.341.001 16.715-.001 32.397-6.527 44.189-18.4 1.13-1.139 2.63-1.766 4.223-1.766 1.595 0 3.095.627 4.225 1.766 11.79 11.874 27.471 18.4 44.189 18.4.111 0 .224-.001.336-.001 12.467-.065 24.333-3.722 34.399-10.465 4.238 5.411 6.389 11.059 6.389 16.854s-2.152 11.443-6.389 16.854c-10.066-6.743-21.932-10.4-34.399-10.465-.114-.001-.223-.002-.336-.002z"/></g></g><g/><g/><g/><g/><g/><g/><g/><g/><g/><g/><g/><g/><g/><g/><g/></svg>