<?xml version="1.0" encoding="utf-8"?>
<!-- Generator: Adobe Illustrator 26.0.1, SVG Export Plug-In . SVG Version: 6.00 Build 0)  -->
<svg version="1.1" id="Layer_1" xmlns="http://www.w3.org/2000/svg" xmlns:xlink="http://www.w3.org/1999/xlink" x="0px" y="0px"
	 viewBox="0 0 774.39 184.96" style="enable-background:new 0 0 774.39 184.96;" xml:space="preserve">
<style type="text/css">
	.st0{fill:#4D5D30;}
	.st1{fill:#7EC401;}
	.st2{fill:#801580;}
	.st3{enable-background:new    ;}
</style>
<g>
	<g>
		<path class="st0" d="M106.72,77.33C100.78,92.16,95.14,99.06,86.68,109c-8.58,10.09-18.28,18.43-18.05,23.05
			c0.25,5.04,16.24,2.38,16.24,2.38s-8.12,0.53-7.87-3.61c0.3-4.96,11.62-17.49,19.84-30.15C105.07,88,106.72,77.33,106.72,77.33z"
			/>
		<path class="st0" d="M183.95,89.68c-0.07-0.61-0.24-1.79-0.67-2.19c-0.14-0.13-0.35-0.13-0.49,0c-0.39,0.37-0.66,0.82-0.83,1.34
			c-1.46,4.57-1.81,9.46-2.97,14.35c-1.15,4.84-2.78,9.43-4.87,13.8c-0.18,0.37-0.16,0.38,0.05,0.03l0.46-0.75l0,0
			c0.03-0.04,0.08-0.06,0.13-0.03c0.06,0.04,0.07,0.1,0.04,0.18c-0.24,0.78-0.61,1.74-1.11,2.87c-1.27,2.87-2.8,5.7-4.58,8.5
			c-1.47,2.3-2.82,4.1-4.07,5.38c-5.4,5.57-11.71,11.29-18.27,15.8c-7.67,5.28-16.51,9.28-25.52,10.9
			c-4.42,0.8-9.05,1.19-13.88,1.19c-2.14,0-4.03-0.1-5.68-0.28c-15.16-1.71-28.46-7.44-39.9-17.19
			c-8.48-7.23-15.4-16.78-19.76-27.44c-2.55-6.24-4.4-12.64-5.56-19.21c-0.99-5.61-0.9-10.95-0.3-16.73
			c0.03-0.3,0.04-0.61,0.04-0.91c0.31-2.11,0.92-5.98,1.22-7.56c0.34-1.78,1.35-6.13,1.77-7.9c0.03-0.13,0.01-0.14-0.06-0.04
			c-0.03,0.04-0.05,0.11-0.07,0.19c-0.43,1.59-1.46,5.88-1.81,7.71c-0.28,1.5-0.8,4.88-1.08,6.96c0-0.02,0-0.03,0-0.05
			c-0.07-0.81-0.1-1.34-0.09-1.6c0.16-2.65,0.3-4.27,0.42-4.86c0.12-0.58,0.4-1.52,0.86-2.8c0.66-1.88,1.46-5.91,2.71-9.56
			c0.24-0.69,0.79-1.11,1.03-1.85c0.06-0.2,0.57-1.59,1.51-4.17c0.81-2.22,1.7-3.97,2.97-5.82c1.95-2.86,3.9-5.7,5.87-8.55
			c2.13-3.07,4.6-5.76,7.59-8.93c0.01-0.01,0.01-0.01,0.01-0.02l2.15-2.09c0.08-0.07,0.14-0.12,0.18-0.15
			c0.31-0.24,0.64-0.49,0.94-0.75c0.04-0.03-0.02-0.01-0.02-0.01c-0.25,0.1-0.47,0.22-0.68,0.35l0.03-0.03
			c-1.53,1.03-2.69,1.91-3.25,2.34c-0.15,0.11-0.27,0.2-0.36,0.29h-0.01l0,0c-0.03,0.02-0.05,0.04-0.07,0.07
			c-5.51,5.2-10.18,11.05-14,17.54c-0.03,0.06-0.33,0.65-0.9,1.78c-0.26,0.51-0.59,1.09-1.01,1.73c-0.56,0.87-1.16,2.06-1.8,3.58
			c-1,2.38-1.51,3.61-1.54,3.69c-0.87,2.17-1.51,3.98-1.9,5.42c-0.47,1.73-0.77,2.79-0.89,3.16c-0.43,1.38-0.73,2.43-0.89,3.16
			c-0.89,4.01-1.47,7.87-1.74,11.58c0,0.01,0,0.02,0,0.03c-0.3,2.27-0.19,4.31-0.17,4.77c0.01-0.33,0.09-1.42,0.16-2.27
			c0.01,0.08,0.01,0.17,0.01,0.25c0.09,1.21,0.07,2.4-0.06,3.56c-0.01,0.1-0.02,0.19-0.03,0.29c-0.06-0.69-0.13-1.39-0.13-1.39
			s-0.13,4.14,0.08,5.08l0,0c0.01,0.24,0.03,0.48,0.04,0.71c1,14.93,5.77,28.41,14.32,40.44c5.5,7.74,12.53,14.47,20.29,19.63
			c6.44,4.28,13.34,7.48,20.72,9.6c13.8,3.97,27.51,3.89,41.14-0.23c16.18-4.89,30.25-15.61,40.41-28.94
			c7.64-10.03,12.19-22.56,13.82-35.12c0.23-1.75,0.33-3.17,0.32-4.25C184.21,92.62,184.12,91.09,183.95,89.68z M60.76,28.54
			c-0.07,0.08-0.13,0.15-0.19,0.24l-0.33,0.3c-0.1,0.06-0.21,0.1-0.32,0.14C60.21,28.98,60.53,28.73,60.76,28.54z M53.19,35.78
			c1.79-2.27,3.83-4.26,6.14-5.99c0.16-0.12,0.36-0.25,0.58-0.39l-1.09,1.1l0,0c-1.86,1.64-3.13,2.81-3.82,3.51
			c-0.15,0.16-0.37,0.44-0.65,0.85c-0.29,0.42-0.64,0.76-1.07,1.01C53.08,36,53.05,35.97,53.19,35.78z"/>
		<path class="st0" d="M33.12,87c0,0.02,0-0.02,0-0.1C33.12,86.95,33.12,86.99,33.12,87z"/>
		<path class="st0" d="M46.11,80.79c-0.09,2.33,0.15,4.74,0.73,7.24c0.13,0.57,0.36,1.39,0.71,1.67c0.01,0.01,0.02,0.02,0.04,0.03
			c0.17,0.11,0.4,0.06,0.51-0.12c0.3-0.48,0.5-0.97,0.59-1.52c0.35-2,0.64-4.74,0.86-8.21c0.23-3.59,0.92-7.35,2.06-11.29
			c0.1-0.35,0.39-1.27,0.87-2.77c0.02-0.06,0.02-0.13,0-0.19c-0.09-0.32-0.1-0.61-0.02-0.87c1.16-3.91,2.77-7.61,4.82-11.1
			c0.68-1.16,1.38-2.16,2.08-3c4.22-5.06,8.88-10.1,14.05-14.35c5.93-4.87,12.82-8.69,20.17-10.85c2.67-0.78,5.93-1.45,9.8-2.01
			c5.16-0.74,10.55-0.58,15.85,0.18c6.72,0.96,13.06,2.93,19.01,5.9c10.61,5.29,18.93,13.02,24.98,23.18
			c1.89,3.17,3.62,6.78,5.2,10.83c1.27,3.26,2.23,6.53,2.88,9.83c0.43,2.17,0.66,5,0.69,8.47c0.01,0.85,0.06,1.67,0.14,2.46
			c0.23,2.15,0.42,3.65,0.23,5.44c-0.1,0.95-0.35,1.76-0.62,2.85c-0.46,1.87-0.65,3.91-0.97,5.69c-0.18,1-0.28,1.58-0.74,2.41
			c-0.18,0.32-0.3,0.64-0.38,0.95c-0.49,1.92-0.87,3.35-1.14,4.3c-0.37,1.31-1.01,2.77-1.92,4.38c-2.19,3.9-3.55,6.29-4.08,7.18
			c-1.15,1.95-3.66,5.25-5.68,7.81c-0.51,0.6-1.57,1.68-3.37,2.89c-4.12,2.67-9.45,4.83-15.99,4.83
			c-11.65,0-21.79-12.02-25.65-28.08c-3.46-14.41-2.23-32.17,1.66-45.58c-6.73,16.74-10.07,45.47-0.32,63.72
			c9.75,18.24,23.86,16.29,31.7,12.51c3.62-1.75,7.06-4.56,9.72-7.07l0,0l0,0c3.08-2.92,5.11-5.44,5.11-5.44
			c3.41-4.17,6.31-8.74,8.57-13.62c0.24-0.52,0.4-1.24,0.63-1.66c0.62-1.16,1.15-2.37,1.58-3.61c0.17-0.48,0.56-1.73,1.18-3.75
			c0.22-0.7,0.49-1.68,0.82-2.94c0.35-1.34,0.49-2.86,0.8-4.23c0.25-1.1,0.43-2.16,0.55-3.18c0.37-3.18,0.51-6.33,0.41-9.46
			c-0.03-0.82-0.38-2.42-0.43-3.68c-0.04-0.95,0.01-2.04-0.12-2.95c-1.66-11.98-6.64-23.03-14.48-32.18
			c-8.81-10.28-20.9-17.72-34.16-20.83c-11.88-2.79-23.52-2.28-34.91,1.53c-14.57,4.86-26.75,15.19-35.06,28.05
			C49.3,59.56,46.52,70.18,46.11,80.79z M161.17,120.83c-0.29,0.46-1.46,2.07-1.54,2.16l0,0l0,0l-0.01,0.01l0,0
			c-0.05,0.07-0.72,0.71-0.84,0.85c-0.8,0.9-1.4,1.43-2.31,2.17c0.82-0.91,2.39-2.66,3-3.3c0.26-0.27,0.49-0.55,0.7-0.85
			c0.15-0.21,0.47-0.91,0.84-1.19C161.33,120.46,161.38,120.5,161.17,120.83z"/>
	</g>
	<path class="st1" d="M125.02,91.85c0,0-3.38-1.87-3.25-4.95c0.14-3.08,5.44-6.93,10.99-6.93c5.55,0,10.23,2.62,14.02,3.9
		c3.79,1.27,7.47,0.27,9.77-0.68c-3.11,1.76-8.01,6.77-10.93,9.66c-2.92,2.9-6.93,6.79-12.8,7.5c-5.87,0.71-8.47-1.81-8.44-3.78
		c-0.24,2.02,0.97,5.32,7.9,5.32c6.93,0,11.64-3.9,15.15-7.96c3.52-4.06,10.23-11.07,12.58-12.56c-1.19,0.41-4.31,2.12-8.85,1.73
		c-3.52-0.3-8.74-5.09-18.32-5.09c-8.63,0-12.42,5.82-12.42,8.42S123.48,91.72,125.02,91.85z"/>
	<path class="st2" d="M144.71,84.98c0,0-16.74,3.93-38.06,18.54c-19.59,13.42-25.5,20.56-27.69,25.28s1,5.43,2.36,5.78
		c-0.77,0.18-5.25,0.47-5.37-3.36c-0.12-3.84,7.38-13.34,24.14-24.96S134.32,86.73,144.71,84.98z"/>
	<g class="st3">
		<path class="st0" d="M229.5,114.14l0.29-2.99c1.74-0.15,3.08-0.33,4.02-0.53s1.61-0.49,2.01-0.88c0.39-0.38,0.6-0.89,0.6-1.49
			c0-0.51-0.05-1.07-0.15-1.68c-0.1-0.62-0.27-1.28-0.52-2l-2.45-8.35c-0.89-0.05-2.15-0.08-3.75-0.08c-1.61,0-2.94,0-3.98,0
			c-1.44,0-2.94,0.08-4.5,0.23c-1.56,0.15-2.76,0.28-3.61,0.38l-2.75,7.97c-0.44,1.38-0.67,2.38-0.67,2.99
			c0,1.12,0.36,1.93,1.08,2.41c0.72,0.48,1.85,0.73,3.38,0.73h4.24l0.15,0.3l-0.44,3.3c-2.08-0.2-3.91-0.34-5.51-0.42
			c-1.58-0.08-3.2-0.11-4.83-0.11c-1.19,0-2.42,0.01-3.68,0.04s-2.76,0.09-4.5,0.19l0.6-3.6c1.39-0.15,2.5-0.64,3.35-1.45
			c0.84-0.82,1.66-2.3,2.45-4.45l14.51-39.19l4.68-1.3h0.6c0.65,2.4,1.25,4.66,1.83,6.79c0.56,2.12,1.24,4.55,2.01,7.28
			c0.77,2.73,1.58,5.64,2.45,8.71c0.87,3.07,1.78,6.17,2.71,9.31c0.94,3.15,1.89,6.14,2.82,9.01c0.6,1.9,1.4,3.22,2.42,3.99
			c1.02,0.77,2.59,1.25,4.72,1.45l0.15,0.3l-0.52,3.15c-1.94-0.1-3.52-0.16-4.76-0.19s-2.28-0.04-3.13-0.04
			c-1.89,0-3.68,0.06-5.39,0.19c-1.72,0.12-3.61,0.32-5.69,0.58L229.5,114.14z M218.8,92.98h6.55c0.99,0,2.18-0.05,3.57-0.15
			c1.39-0.1,2.5-0.18,3.35-0.23l-5.87-20.09h-0.52L218.8,92.98z"/>
		<path class="st0" d="M272.05,114.83c-5.21,0-9.22-1.47-12.05-4.41c-2.82-2.94-4.24-7.11-4.24-12.54V72.51
			c0-1.63-0.17-2.73-0.52-3.3c-0.34-0.56-1.09-0.85-2.23-0.85c-0.44,0-1.29,0.05-2.53,0.15l-0.15-0.3l0.52-3.37
			c2.03,0.1,3.7,0.17,5.02,0.19c1.31,0.03,2.44,0.04,3.38,0.04c0.8,0,1.64-0.04,2.56-0.11c0.92-0.08,1.78-0.15,2.56-0.23
			c0.8-0.08,1.68-0.19,2.67-0.34l-0.29,3.45c-1.84,0.25-3.07,0.68-3.68,1.26c-0.63,0.59-0.98,1.62-1.08,3.11l-0.6,22.54
			c0,5.06,1.07,8.95,3.2,11.65c2.13,2.71,5.21,4.07,9.22,4.07c4.07,0,7.16-1.11,9.3-3.34c2.13-2.23,3.2-5.43,3.2-9.62
			c0-1.07-0.01-2.6-0.04-4.6c-0.03-2-0.06-4.16-0.11-6.48c-0.05-2.32-0.1-4.55-0.15-6.67c-0.05-2.12-0.1-4.54-0.15-7.24
			c-0.1-1.79-0.31-2.93-0.64-3.41c-0.32-0.48-1.03-0.73-2.12-0.73c-0.44,0-1.51,0.05-3.2,0.15l-0.15-0.3l0.52-3.37
			c1.19,0.05,2.23,0.09,3.13,0.11c0.89,0.03,1.83,0.05,2.78,0.08c0.97,0.03,1.8,0.04,2.49,0.04c1.09,0,2.18-0.05,3.27-0.15
			s2.4-0.28,3.94-0.53l-0.29,3.45c-2.13,0.3-3.52,0.72-4.17,1.23c-0.65,0.51-0.97,1.56-0.97,3.15v25.77c0,5.37-1.61,9.52-4.83,12.46
			C282.44,113.36,277.9,114.83,272.05,114.83z"/>
		<path class="st0" d="M336.46,115.13c-1.24,0-2.56-0.67-3.98-2c-1.41-1.33-2.71-3.1-3.9-5.29l-7.96-14.87h-6.17l-0.22,11.42
			c0,1.84,0.11,3.21,0.33,4.11s0.72,1.48,1.48,1.77c0.77,0.28,1.95,0.42,3.53,0.42l0.15,0.3l-0.67,3.22
			c-0.99-0.05-1.88-0.09-2.64-0.11c-0.77-0.03-1.61-0.05-2.53-0.08s-1.83-0.04-2.71-0.04c-1.24-0.05-2.51-0.05-3.83,0
			c-1.31,0.05-2.89,0.13-4.72,0.23l0.67-3.45c2.33-0.25,3.85-0.78,4.57-1.57s1.08-2.29,1.08-4.49l0.07-32.2
			c0-1.63-0.18-2.73-0.55-3.3c-0.37-0.56-1.1-0.85-2.19-0.85c-0.44,0-1.29,0.05-2.53,0.15l-0.15-0.3l0.52-3.37
			c1.14,0.05,2.16,0.09,3.05,0.11c0.89,0.03,1.81,0.05,2.75,0.08c0.94,0.03,1.76,0.04,2.45,0.04c0.65,0,1.47-0.01,2.49-0.04
			c1.02-0.02,2.03-0.06,3.05-0.11c1.02-0.05,2.22-0.1,3.61-0.15c4.61,0,8.25,1.07,10.94,3.22s4.02,5.08,4.02,8.82
			c0,3.07-0.96,5.88-2.87,8.43c-1.91,2.55-4.6,4.65-8.07,6.29l8.18,13.34c1.43,2.4,2.83,4.09,4.21,5.06
			c1.36,0.97,3.04,1.45,5.02,1.45l0.29,0.3l-0.44,2.6L336.46,115.13z M322.25,89.45c1.63-0.67,2.98-1.4,4.02-2.22
			c1.04-0.82,1.97-1.97,2.78-3.45c0.82-1.48,1.23-3.35,1.23-5.6c0-3.37-1.13-5.9-3.38-7.59c-2.26-1.68-5.67-2.53-10.23-2.53
			c-0.49,0-0.83,0.11-1.01,0.34c-0.17,0.23-0.28,0.71-0.33,1.42c-0.2,4.04-0.36,7.52-0.48,10.43c-0.12,2.92-0.21,5.72-0.26,8.43
			L322.25,89.45z"/>
		<path class="st0" d="M366.65,114.83c-5.21,0-9.22-1.47-12.05-4.41c-2.82-2.94-4.24-7.11-4.24-12.54V72.51
			c0-1.63-0.17-2.73-0.52-3.3c-0.34-0.56-1.09-0.85-2.23-0.85c-0.44,0-1.29,0.05-2.53,0.15l-0.15-0.3l0.52-3.37
			c2.03,0.1,3.7,0.17,5.02,0.19c1.31,0.03,2.44,0.04,3.38,0.04c0.8,0,1.64-0.04,2.56-0.11c0.92-0.08,1.78-0.15,2.56-0.23
			c0.8-0.08,1.68-0.19,2.67-0.34l-0.29,3.45c-1.84,0.25-3.07,0.68-3.68,1.26c-0.63,0.59-0.98,1.62-1.08,3.11l-0.6,22.54
			c0,5.06,1.07,8.95,3.2,11.65c2.13,2.71,5.21,4.07,9.22,4.07c4.07,0,7.16-1.11,9.3-3.34c2.13-2.23,3.2-5.43,3.2-9.62
			c0-1.07-0.01-2.6-0.04-4.6c-0.03-2-0.06-4.16-0.11-6.48c-0.05-2.32-0.1-4.55-0.15-6.67c-0.05-2.12-0.1-4.54-0.15-7.24
			c-0.1-1.79-0.31-2.93-0.64-3.41c-0.32-0.48-1.03-0.73-2.12-0.73c-0.44,0-1.51,0.05-3.2,0.15l-0.15-0.3l0.52-3.37
			c1.19,0.05,2.23,0.09,3.13,0.11c0.89,0.03,1.83,0.05,2.78,0.08c0.97,0.03,1.8,0.04,2.49,0.04c1.09,0,2.18-0.05,3.27-0.15
			c1.09-0.1,2.4-0.28,3.94-0.53l-0.29,3.45c-2.13,0.3-3.52,0.72-4.17,1.23c-0.65,0.51-0.97,1.56-0.97,3.15v25.77
			c0,5.37-1.61,9.52-4.83,12.46C377.04,113.36,372.5,114.83,366.65,114.83z"/>
		<path class="st0" d="M422.51,115.36c-1.58-4.6-3.18-9.2-4.76-13.8c-1.58-4.6-3.18-9.19-4.76-13.76
			c-1.58-4.57-3.18-9.16-4.76-13.76h-0.37c-0.25,3.12-0.47,5.92-0.67,8.39c-0.2,2.48-0.42,5.13-0.67,7.94
			c-0.25,2.81-0.47,5.51-0.67,8.09c-0.2,2.58-0.36,4.75-0.48,6.52c-0.12,1.77-0.18,2.82-0.18,3.18c0,1.58,0.77,2.38,2.31,2.38
			c0.39,0,1.41-0.02,3.05-0.08l0.15,0.3l-0.67,3.45c-1.74-0.1-3.16-0.18-4.28-0.23c-1.12-0.05-2.1-0.08-2.94-0.08
			c-0.75,0-1.48,0.02-2.23,0.08c-0.75,0.05-1.44,0.13-2.08,0.23c-0.65,0.1-1.34,0.2-2.08,0.3l0.37-3.53
			c1.58-0.2,2.72-0.73,3.42-1.57c0.7-0.85,1.14-2.29,1.34-4.33c0.1-0.92,0.25-2.31,0.44-4.18c0.2-1.87,0.42-3.99,0.67-6.37
			c0.24-2.38,0.48-4.79,0.71-7.24s0.44-4.78,0.67-6.98c0.22-2.2,0.39-4.05,0.52-5.56c0.12-1.5,0.18-2.44,0.18-2.79
			c0-0.92-0.22-1.66-0.67-2.22c-0.44-0.56-1.14-1.01-2.08-1.34c-0.94-0.33-2.16-0.54-3.64-0.66l-0.22-0.38l0.6-2.68
			c2.03,0.1,3.69,0.19,4.98,0.27c1.29,0.08,2.33,0.11,3.13,0.11c0.75,0,1.5-0.02,2.27-0.08c0.77-0.05,1.69-0.13,2.79-0.23
			c1.68,5.57,3.28,10.68,4.79,15.34c1.51,4.65,2.86,8.67,4.02,12.04c1.16,3.37,2.42,6.93,3.75,10.65h0.37
			c1.34-3.73,2.6-7.29,3.79-10.69c1.19-3.4,2.55-7.4,4.09-12c1.53-4.6,3.2-9.67,4.98-15.18c0-0.05,0.31-0.05,0.93,0
			s1.31,0.09,2.08,0.11c0.77,0.03,1.4,0.04,1.9,0.04c0.75,0,1.76-0.04,3.05-0.11c1.29-0.08,2.95-0.19,4.98-0.34l0.15,0.3l-0.37,2.83
			c-2.13,0.25-3.64,0.71-4.54,1.34c-0.89,0.64-1.34,1.59-1.34,2.88c0,0.46,0.04,1.48,0.11,3.07c0.07,1.58,0.18,3.53,0.33,5.83
			s0.31,4.77,0.48,7.4c0.17,2.63,0.34,5.26,0.52,7.86c0.17,2.6,0.33,4.98,0.48,7.13c0.34,2.97,0.75,4.92,1.19,5.86
			c0.44,0.95,1.26,1.42,2.45,1.42c0.44,0,1.14-0.05,2.08-0.15l0.15,0.3l-0.67,3.45c-1.58-0.1-2.94-0.16-4.06-0.19
			c-1.12-0.03-2.12-0.04-3.02-0.04c-0.8,0-1.63,0.02-2.53,0.08c-0.89,0.05-1.74,0.13-2.53,0.23c-0.8,0.1-1.68,0.2-2.67,0.3
			l0.29-3.53c1.53-0.2,2.65-0.62,3.35-1.23c0.7-0.62,1.04-1.48,1.04-2.6c0-0.46-0.06-1.57-0.18-3.34c-0.12-1.77-0.28-3.89-0.48-6.41
			c-0.2-2.5-0.39-5.12-0.6-7.82c-0.2-2.71-0.39-5.24-0.6-7.59c-0.2-2.35-0.42-5-0.67-7.97h-0.37c-1.19,3.37-2.38,6.76-3.57,10.16
			c-1.19,3.4-2.39,6.81-3.61,10.24c-1.22,3.43-2.42,6.84-3.61,10.24c-1.19,3.4-2.38,6.79-3.57,10.16L422.51,115.36z"/>
		<path class="st0" d="M475.02,114.83l0.44-3.53c2.33-0.46,3.88-1.14,4.65-2.03c0.77-0.89,1.15-2.41,1.15-4.56l0.07-32.2
			c0-1.63-0.17-2.73-0.52-3.3c-0.34-0.56-1.09-0.85-2.23-0.85c-0.29,0-0.7,0.01-1.19,0.04c-0.49,0.03-0.94,0.06-1.34,0.11l-0.15-0.3
			l0.52-3.37c1.14,0.05,2.54,0.1,4.21,0.15c1.66,0.05,3.02,0.08,4.06,0.08c0.94,0,2.17-0.06,3.68-0.19
			c1.51-0.13,2.94-0.29,4.28-0.49l-0.29,3.45c-1.39,0.2-2.42,0.49-3.09,0.88c-0.67,0.38-1.12,1.02-1.34,1.92s-0.38,2.26-0.48,4.11
			l-0.44,12.42l12.49,0.08c1.63,0,3.25-0.05,4.83-0.15c1.58-0.1,3.64-0.3,6.17-0.62l0.07-13.95c0-1.63-0.17-2.73-0.52-3.3
			c-0.34-0.56-1.09-0.85-2.23-0.85c-0.34,0-0.76,0.01-1.23,0.04s-0.91,0.06-1.3,0.11l-0.15-0.3l0.52-3.37
			c1.79,0.1,3.25,0.17,4.39,0.19c1.14,0.03,2.11,0.04,2.91,0.04c1.09,0,2.48-0.06,4.17-0.19c1.68-0.13,3.27-0.29,4.76-0.49
			l-0.29,3.45c-1.84,0.25-3.07,0.68-3.68,1.26c-0.63,0.59-0.98,1.62-1.08,3.11c-0.15,2.97-0.28,6.07-0.41,9.31
			c-0.12,3.25-0.23,6.42-0.33,9.5c-0.1,3.1-0.17,5.92-0.22,8.47c-0.05,2.55-0.07,4.65-0.07,6.29c0,1.9,0.22,3.16,0.67,3.79
			c0.44,0.64,1.31,0.96,2.6,0.96c0.54,0,1.14-0.02,1.79-0.08c0.65-0.05,1.16-0.1,1.56-0.15l0.15,0.3l-0.67,3.53
			c-1.24-0.05-2.77-0.1-4.61-0.15c-1.84-0.05-3.35-0.08-4.54-0.08c-0.6,0-1.4,0.01-2.42,0.04c-1.02,0.03-2.07,0.04-3.16,0.04
			c-1.09,0-2.08,0.02-2.98,0.08l0.67-3.45c1.58-0.05,2.77-0.28,3.57-0.69s1.34-1.2,1.63-2.38c0.29-1.18,0.44-2.89,0.44-5.14V90.83
			c-1.14,0-2.43-0.01-3.86-0.04c-1.44-0.02-2.82-0.04-4.17-0.04c-1.34,0-2.43,0-3.27,0c-0.49,0-1.4,0.04-2.71,0.11
			c-1.31,0.08-2.82,0.18-4.54,0.3c-1.72,0.13-3.41,0.27-5.09,0.42l-0.29,13.72c0,2.05,0.22,3.43,0.67,4.14
			c0.44,0.72,1.31,1.07,2.6,1.07c0.54,0,1.14-0.02,1.79-0.08c0.65-0.05,1.16-0.1,1.56-0.15l0.15,0.3l-0.67,3.53
			c0-0.05-0.37-0.09-1.12-0.11c-0.75-0.03-1.61-0.05-2.6-0.08c-0.99-0.03-1.86-0.04-2.6-0.04c-1.48,0-3.11,0.05-4.87,0.15
			c-1.77,0.1-3.26,0.21-4.5,0.34C475.71,114.54,475.07,114.68,475.02,114.83z"/>
		<path class="st0" d="M531.1,114.68l0.44-3.53c2.23-0.3,3.75-0.91,4.57-1.81c0.82-0.89,1.23-2.44,1.23-4.64l0.07-32.2
			c0-1.63-0.17-2.73-0.52-3.3c-0.34-0.56-1.09-0.85-2.23-0.85c-0.29,0-0.7,0.01-1.19,0.04c-0.49,0.03-0.94,0.06-1.34,0.11l-0.15-0.3
			l0.52-3.37c0.84,0,1.86,0.03,3.05,0.08s2.43,0.09,3.72,0.11c1.29,0.03,2.48,0.04,3.57,0.04c3.96,0,7.3-0.02,10.01-0.08
			c2.7-0.05,5.02-0.15,6.95-0.3c1.94-0.15,3.72-0.33,5.36-0.53l0.22,0.46c-0.25,1.23-0.49,2.59-0.75,4.11
			c-0.25,1.5-0.44,3.01-0.6,4.49c-0.15,1.48-0.27,2.87-0.37,4.14l-3.57,0.3c0.05-0.46,0.08-1.04,0.11-1.73
			c0.02-0.69,0.04-1.21,0.04-1.57c0-1.23-0.11-2.21-0.33-2.96c-0.22-0.74-0.7-1.29-1.41-1.64c-0.72-0.35-1.85-0.59-3.38-0.69
			c-1.53-0.1-3.62-0.15-6.25-0.15c-1.58,0-2.75,0.05-3.49,0.15c-0.75,0.1-1.2,0.35-1.37,0.77c-0.17,0.41-0.28,1.1-0.33,2.07
			l-0.75,17.87l-0.29,16.1c0,1.38,0.12,2.39,0.37,3.03c0.25,0.64,0.78,1.06,1.59,1.26s2.12,0.3,3.9,0.3c2.93,0,5.28-0.1,7.06-0.3
			c1.79-0.2,3.15-0.62,4.09-1.23c0.94-0.62,1.63-1.54,2.08-2.79c0.44-1.25,0.82-2.93,1.12-5.02l3.27-0.38l0.22,0.38
			c-0.34,1.58-0.71,3.6-1.08,6.05s-0.69,4.73-0.93,6.82l-0.37,0.46c-2.98-0.1-5.94-0.19-8.89-0.27s-5.62-0.14-7.99-0.19
			c-2.38-0.05-4.27-0.08-5.65-0.08c-1.53,0-3.29,0.06-5.25,0.19C534.24,114.22,532.53,114.42,531.1,114.68z M541.89,91.36l0.67-4.6
			c0.34,0,1.02,0,2.01,0s2.06,0.01,3.2,0.04c1.14,0.03,2.13,0.04,2.98,0.04c0.84,0,2.14-0.09,3.9-0.27
			c1.76-0.18,3.48-0.37,5.17-0.58l0.29,0.38l-1.04,4.52c-1.39-0.05-3.11-0.1-5.17-0.15s-3.8-0.08-5.25-0.08
			c-0.94,0-2.05,0.06-3.31,0.19C544.08,91,542.92,91.16,541.89,91.36z"/>
		<path class="st0" d="M595.21,114.14l0.29-2.99c1.74-0.15,3.08-0.33,4.02-0.53c0.94-0.2,1.61-0.49,2.01-0.88
			c0.39-0.38,0.6-0.89,0.6-1.49c0-0.51-0.05-1.07-0.15-1.68c-0.1-0.62-0.27-1.28-0.52-2l-2.45-8.35c-0.89-0.05-2.15-0.08-3.75-0.08
			c-1.61,0-2.94,0-3.98,0c-1.44,0-2.94,0.08-4.5,0.23s-2.76,0.28-3.61,0.38l-2.75,7.97c-0.44,1.38-0.67,2.38-0.67,2.99
			c0,1.12,0.36,1.93,1.08,2.41c0.72,0.48,1.85,0.73,3.38,0.73h4.24l0.15,0.3l-0.44,3.3c-2.08-0.2-3.91-0.34-5.51-0.42
			c-1.58-0.08-3.2-0.11-4.83-0.11c-1.19,0-2.42,0.01-3.68,0.04s-2.76,0.09-4.5,0.19l0.6-3.6c1.39-0.15,2.5-0.64,3.35-1.45
			c0.84-0.82,1.66-2.3,2.45-4.45l14.51-39.19l4.68-1.3h0.6c0.65,2.4,1.25,4.66,1.83,6.79c0.57,2.12,1.24,4.55,2.01,7.28
			c0.77,2.73,1.58,5.64,2.45,8.71s1.78,6.17,2.71,9.31c0.94,3.15,1.89,6.14,2.82,9.01c0.6,1.9,1.4,3.22,2.42,3.99
			c1.02,0.77,2.59,1.25,4.72,1.45l0.15,0.3l-0.52,3.15c-1.94-0.1-3.52-0.16-4.76-0.19s-2.28-0.04-3.13-0.04
			c-1.89,0-3.68,0.06-5.39,0.19c-1.72,0.12-3.61,0.32-5.69,0.58L595.21,114.14z M584.5,92.98h6.55c0.99,0,2.18-0.05,3.57-0.15
			c1.39-0.1,2.5-0.18,3.35-0.23l-5.87-20.09h-0.52L584.5,92.98z"/>
		<path class="st0" d="M619.68,111.15c1.94-0.3,3.26-0.91,3.98-1.81c0.72-0.89,1.08-2.44,1.08-4.64l0.07-32.2
			c0-1.63-0.17-2.73-0.52-3.3c-0.34-0.56-1.09-0.85-2.23-0.85c-0.44,0-1.29,0.05-2.53,0.15l-0.15-0.3l0.52-3.37
			c1.98,0.1,3.63,0.17,4.94,0.19c1.31,0.03,2.44,0.04,3.38,0.04c0.8,0,1.64-0.04,2.56-0.11c0.92-0.08,1.79-0.15,2.6-0.23
			c0.82-0.08,1.75-0.19,2.78-0.34l-0.29,3.45c-1.63,0.2-2.77,0.53-3.42,1c-0.65,0.46-1.02,1.16-1.12,2.11
			c-0.1,0.95-0.22,2.29-0.37,4.03c-0.2,3.17-0.37,6.61-0.52,10.31c-0.15,3.7-0.25,7.26-0.29,10.65c-0.05,3.4-0.07,6.28-0.07,8.63
			c0,1.74,0.13,3.03,0.41,3.87c0.27,0.85,0.87,1.39,1.79,1.64c0.92,0.25,2.29,0.38,4.13,0.38c2.18,0,3.94-0.13,5.28-0.38
			c1.34-0.25,2.42-0.77,3.24-1.53c0.82-0.77,1.47-1.87,1.97-3.3c0.49-1.43,0.94-3.32,1.34-5.67l3.27-0.38l0.22,0.38
			c-0.49,2.76-0.91,5.24-1.23,7.44c-0.32,2.2-0.64,4.57-0.93,7.13l-0.37,0.46c-2.77-0.15-5.24-0.27-7.36-0.34
			c-2.13-0.08-4.33-0.15-6.58-0.23c-2.25-0.08-4.28-0.11-6.06-0.11c-1.84,0-3.51,0.06-5.02,0.19c-1.51,0.12-3.16,0.32-4.94,0.58
			L619.68,111.15z"/>
		<path class="st0" d="M658.2,114.21l0.6-3.3c2.33-0.2,4.02-0.52,5.05-0.96c1.04-0.43,1.69-1.28,1.97-2.53
			c0.27-1.25,0.41-3.23,0.41-5.94V68.06c-2.88,0.1-5.15,0.24-6.81,0.42c-1.66,0.18-2.89,0.56-3.68,1.15
			c-0.8,0.59-1.36,1.52-1.72,2.79c-0.34,1.28-0.67,3.05-0.97,5.29l-3.49,0.3c0.2-1.48,0.37-3.02,0.52-4.6s0.27-3.13,0.37-4.64
			c0.1-1.5,0.17-2.85,0.22-4.03l0.67-0.62l6.17,0.85h23.06l6.33-0.85l0.67,0.62c0.05,1.18,0.12,2.52,0.22,4.03
			c0.1,1.51,0.23,3.03,0.41,4.56c0.17,1.53,0.33,2.99,0.48,4.37l-3.49,0.3c-0.34-2.3-0.71-4.11-1.08-5.41
			c-0.37-1.3-0.94-2.25-1.72-2.83c-0.77-0.59-1.93-0.99-3.46-1.19c-1.53-0.2-3.64-0.38-6.33-0.53c-0.15,1.53-0.29,3.73-0.44,6.6
			c-0.15,2.87-0.27,6.07-0.37,9.62c-0.1,3.55-0.18,7.17-0.26,10.85c-0.07,3.68-0.11,7.08-0.11,10.2c0,1.9,0.32,3.24,0.97,4.03
			c0.65,0.8,1.74,1.19,3.27,1.19c1.48,0,2.86-0.08,4.09-0.23l0.22,0.3l-0.67,3.53c-1.04-0.05-2.26-0.09-3.64-0.11
			c-1.39-0.03-2.74-0.05-4.06-0.08c-1.31-0.03-2.39-0.04-3.24-0.04c-0.8,0-1.8,0.01-3.02,0.04c-1.22,0.03-2.45,0.06-3.72,0.11
			C660.4,114.11,659.25,114.16,658.2,114.21z"/>
		<path class="st0" d="M693.82,114.83l0.44-3.53c2.33-0.46,3.88-1.14,4.65-2.03c0.77-0.89,1.15-2.41,1.15-4.56l0.07-32.2
			c0-1.63-0.17-2.73-0.52-3.3c-0.34-0.56-1.09-0.85-2.23-0.85c-0.29,0-0.7,0.01-1.19,0.04c-0.49,0.03-0.94,0.06-1.34,0.11l-0.15-0.3
			l0.52-3.37c1.14,0.05,2.54,0.1,4.21,0.15s3.02,0.08,4.06,0.08c0.94,0,2.17-0.06,3.68-0.19c1.51-0.13,2.94-0.29,4.28-0.49
			l-0.29,3.45c-1.39,0.2-2.42,0.49-3.09,0.88c-0.67,0.38-1.12,1.02-1.34,1.92c-0.22,0.9-0.38,2.26-0.48,4.11l-0.44,12.42l12.49,0.08
			c1.63,0,3.25-0.05,4.83-0.15c1.58-0.1,3.64-0.3,6.17-0.62l0.07-13.95c0-1.63-0.17-2.73-0.52-3.3c-0.34-0.56-1.09-0.85-2.23-0.85
			c-0.34,0-0.76,0.01-1.23,0.04c-0.47,0.03-0.91,0.06-1.3,0.11l-0.15-0.3l0.52-3.37c1.79,0.1,3.25,0.17,4.39,0.19
			c1.14,0.03,2.11,0.04,2.91,0.04c1.09,0,2.48-0.06,4.17-0.19c1.68-0.13,3.27-0.29,4.76-0.49l-0.29,3.45
			c-1.84,0.25-3.07,0.68-3.68,1.26c-0.63,0.59-0.98,1.62-1.08,3.11c-0.15,2.97-0.28,6.07-0.41,9.31c-0.12,3.25-0.23,6.42-0.33,9.5
			c-0.1,3.1-0.17,5.92-0.22,8.47c-0.05,2.55-0.07,4.65-0.07,6.29c0,1.9,0.22,3.16,0.67,3.79c0.44,0.64,1.31,0.96,2.6,0.96
			c0.54,0,1.14-0.02,1.79-0.08c0.65-0.05,1.16-0.1,1.56-0.15l0.15,0.3l-0.67,3.53c-1.24-0.05-2.77-0.1-4.61-0.15
			c-1.84-0.05-3.35-0.08-4.54-0.08c-0.6,0-1.4,0.01-2.42,0.04s-2.07,0.04-3.16,0.04s-2.08,0.02-2.98,0.08l0.67-3.45
			c1.58-0.05,2.77-0.28,3.57-0.69s1.34-1.2,1.63-2.38s0.44-2.89,0.44-5.14V90.83c-1.14,0-2.43-0.01-3.86-0.04
			c-1.44-0.02-2.82-0.04-4.17-0.04s-2.43,0-3.27,0c-0.49,0-1.4,0.04-2.71,0.11c-1.31,0.08-2.82,0.18-4.54,0.3
			c-1.72,0.13-3.41,0.27-5.09,0.42l-0.29,13.72c0,2.05,0.22,3.43,0.67,4.14c0.44,0.72,1.31,1.07,2.6,1.07
			c0.54,0,1.14-0.02,1.79-0.08c0.65-0.05,1.16-0.1,1.56-0.15l0.15,0.3l-0.67,3.53c0-0.05-0.37-0.09-1.12-0.11
			c-0.75-0.03-1.61-0.05-2.6-0.08c-0.99-0.03-1.86-0.04-2.6-0.04c-1.48,0-3.11,0.05-4.87,0.15c-1.77,0.1-3.26,0.21-4.5,0.34
			C694.52,114.54,693.87,114.68,693.82,114.83z"/>
	</g>
	<g>
		<path class="st2" d="M281.01,150.23h-3.81v-18.48h3.81V150.23z"/>
		<path class="st2" d="M290.49,136.5l0.11,1.59c0.98-1.23,2.3-1.84,3.95-1.84c1.46,0,2.54,0.43,3.25,1.28s1.07,2.13,1.09,3.83v8.87
			h-3.67v-8.79c0-0.78-0.17-1.34-0.51-1.7c-0.34-0.35-0.9-0.53-1.69-0.53c-1.03,0-1.81,0.44-2.32,1.32v9.69h-3.67V136.5H290.49z"/>
		<path class="st2" d="M309.62,145.75l2.55-9.25h3.83l-4.63,13.74h-3.5l-4.63-13.74h3.83L309.62,145.75z"/>
		<path class="st2" d="M326.59,150.49c-2.01,0-3.65-0.62-4.92-1.85s-1.9-2.88-1.9-4.94v-0.36c0-1.38,0.27-2.61,0.8-3.7
			c0.53-1.09,1.29-1.93,2.27-2.51c0.98-0.59,2.09-0.88,3.35-0.88c1.88,0,3.36,0.59,4.44,1.78s1.62,2.87,1.62,5.04v1.5h-8.75
			c0.12,0.9,0.48,1.62,1.07,2.16s1.35,0.81,2.27,0.81c1.41,0,2.52-0.51,3.31-1.54l1.8,2.02c-0.55,0.78-1.29,1.39-2.23,1.82
			C328.77,150.27,327.73,150.49,326.59,150.49z M326.17,139.2c-0.73,0-1.32,0.25-1.77,0.74s-0.74,1.2-0.87,2.12h5.1v-0.29
			c-0.02-0.82-0.24-1.45-0.66-1.89S326.95,139.2,326.17,139.2z"/>
		<path class="st2" d="M344.56,146.44c0-0.45-0.22-0.8-0.67-1.06c-0.44-0.26-1.16-0.49-2.14-0.69c-3.27-0.69-4.9-2.07-4.9-4.16
			c0-1.22,0.51-2.24,1.52-3.05c1.01-0.82,2.33-1.22,3.97-1.22c1.74,0,3.14,0.41,4.18,1.23c1.04,0.82,1.57,1.89,1.57,3.2h-3.67
			c0-0.52-0.17-0.96-0.51-1.3c-0.34-0.34-0.87-0.51-1.59-0.51c-0.62,0-1.1,0.14-1.43,0.42c-0.34,0.28-0.51,0.63-0.51,1.07
			c0,0.41,0.19,0.73,0.58,0.98c0.38,0.25,1.03,0.47,1.95,0.65c0.91,0.18,1.69,0.39,2.31,0.62c1.94,0.71,2.91,1.94,2.91,3.69
			c0,1.25-0.54,2.27-1.61,3.04c-1.07,0.78-2.46,1.16-4.16,1.16c-1.15,0-2.17-0.21-3.06-0.62c-0.89-0.41-1.59-0.97-2.1-1.69
			c-0.51-0.71-0.76-1.49-0.76-2.32h3.48c0.03,0.65,0.28,1.15,0.72,1.5c0.45,0.35,1.05,0.52,1.8,0.52c0.7,0,1.23-0.13,1.59-0.4
			C344.38,147.22,344.56,146.87,344.56,146.44z"/>
		<path class="st2" d="M357.69,133.12v3.38h2.35v2.69h-2.35v6.86c0,0.51,0.1,0.87,0.29,1.09s0.57,0.33,1.12,0.33
			c0.41,0,0.77-0.03,1.08-0.09v2.78c-0.72,0.22-1.46,0.33-2.22,0.33c-2.57,0-3.88-1.3-3.94-3.9v-7.4h-2.01v-2.69h2.01v-3.38H357.69z
			"/>
		<path class="st2" d="M378.47,150.23h-3.81v-18.48h3.81V150.23z"/>
		<path class="st2" d="M387.94,136.5l0.11,1.59c0.98-1.23,2.3-1.84,3.95-1.84c1.46,0,2.54,0.43,3.25,1.28s1.08,2.13,1.09,3.83v8.87
			h-3.67v-8.79c0-0.78-0.17-1.34-0.51-1.7c-0.34-0.35-0.9-0.53-1.69-0.53c-1.03,0-1.81,0.44-2.32,1.32v9.69h-3.67V136.5H387.94z"/>
		<path class="st2" d="M417.83,140.08l3.85-8.33h4.16l-6.07,11.78v6.7h-3.87v-6.7l-6.07-11.78h4.18L417.83,140.08z"/>
		<path class="st2" d="M428.7,143.24c0-1.36,0.26-2.58,0.79-3.64s1.28-1.89,2.27-2.48c0.99-0.58,2.13-0.88,3.43-0.88
			c1.85,0,3.37,0.57,4.54,1.7c1.17,1.13,1.83,2.67,1.96,4.62l0.03,0.94c0,2.11-0.59,3.8-1.76,5.07c-1.18,1.27-2.75,1.91-4.74,1.91
			s-3.56-0.63-4.74-1.9c-1.18-1.27-1.77-3-1.77-5.18V143.24z M432.37,143.5c0,1.3,0.25,2.3,0.74,2.99s1.19,1.04,2.11,1.04
			c0.89,0,1.58-0.34,2.08-1.02s0.75-1.77,0.75-3.27c0-1.28-0.25-2.27-0.75-2.97c-0.5-0.7-1.2-1.06-2.11-1.06
			c-0.9,0-1.59,0.35-2.08,1.05S432.37,142.03,432.37,143.5z"/>
		<path class="st2" d="M455.01,148.84c-0.91,1.1-2.16,1.65-3.76,1.65c-1.47,0-2.6-0.42-3.37-1.27c-0.78-0.85-1.17-2.09-1.19-3.72v-9
			h3.67v8.88c0,1.43,0.65,2.15,1.96,2.15c1.24,0,2.1-0.43,2.56-1.3v-9.74h3.68v13.74h-3.45L455.01,148.84z"/>
		<path class="st2" d="M471.86,139.94c-0.5-0.07-0.94-0.1-1.32-0.1c-1.39,0-2.3,0.47-2.73,1.41v8.99h-3.67V136.5h3.47l0.1,1.64
			c0.74-1.26,1.76-1.89,3.06-1.89c0.41,0,0.79,0.05,1.14,0.17L471.86,139.94z"/>
		<path class="st2" d="M501,150.23h-3.81v-7.92h-7.43v7.92h-3.81v-18.48h3.81v7.49h7.43v-7.49H501V150.23z"/>
		<path class="st2" d="M513.21,150.49c-2.01,0-3.65-0.62-4.92-1.85c-1.27-1.24-1.9-2.88-1.9-4.94v-0.36c0-1.38,0.27-2.61,0.8-3.7
			c0.53-1.09,1.29-1.93,2.27-2.51c0.98-0.59,2.09-0.88,3.34-0.88c1.88,0,3.36,0.59,4.44,1.78c1.08,1.18,1.62,2.87,1.62,5.04v1.5
			h-8.75c0.12,0.9,0.48,1.62,1.07,2.16c0.6,0.54,1.35,0.81,2.27,0.81c1.41,0,2.52-0.51,3.31-1.54l1.8,2.02
			c-0.55,0.78-1.29,1.39-2.23,1.82C515.39,150.27,514.35,150.49,513.21,150.49z M512.79,139.2c-0.73,0-1.32,0.25-1.77,0.74
			c-0.45,0.49-0.74,1.2-0.87,2.12h5.1v-0.29c-0.02-0.82-0.24-1.45-0.66-1.89S513.57,139.2,512.79,139.2z"/>
		<path class="st2" d="M531.71,150.23c-0.17-0.33-0.29-0.74-0.37-1.23c-0.89,0.99-2.04,1.49-3.47,1.49c-1.35,0-2.46-0.39-3.35-1.17
			c-0.88-0.78-1.33-1.76-1.33-2.95c0-1.46,0.54-2.57,1.62-3.35c1.08-0.78,2.64-1.17,4.68-1.18h1.69v-0.79
			c0-0.63-0.16-1.14-0.49-1.52c-0.33-0.38-0.84-0.57-1.54-0.57c-0.62,0-1.1,0.15-1.45,0.44c-0.35,0.3-0.53,0.7-0.53,1.22h-3.67
			c0-0.8,0.25-1.53,0.74-2.21s1.18-1.21,2.08-1.59c0.9-0.39,1.9-0.58,3.02-0.58c1.69,0,3.04,0.43,4.03,1.28
			c0.99,0.85,1.49,2.05,1.49,3.59v5.95c0.01,1.3,0.19,2.29,0.55,2.96v0.22H531.71z M528.68,147.68c0.54,0,1.04-0.12,1.5-0.36
			c0.46-0.24,0.8-0.56,1.02-0.97v-2.36h-1.37c-1.84,0-2.81,0.63-2.93,1.9l-0.01,0.22c0,0.46,0.16,0.83,0.48,1.13
			S528.12,147.68,528.68,147.68z"/>
		<path class="st2" d="M544.37,150.23h-3.68v-19.5h3.68V150.23z"/>
		<path class="st2" d="M554.59,133.12v3.38h2.35v2.69h-2.35v6.86c0,0.51,0.1,0.87,0.29,1.09s0.57,0.33,1.12,0.33
			c0.41,0,0.77-0.03,1.08-0.09v2.78c-0.72,0.22-1.46,0.33-2.22,0.33c-2.57,0-3.88-1.3-3.94-3.9v-7.4h-2.01v-2.69h2.01v-3.38H554.59z
			"/>
		<path class="st2" d="M565.37,137.99c0.97-1.17,2.2-1.75,3.67-1.75c2.98,0,4.49,1.73,4.53,5.19v8.8h-3.67v-8.7
			c0-0.79-0.17-1.37-0.51-1.75c-0.34-0.38-0.9-0.57-1.69-0.57c-1.08,0-1.85,0.42-2.34,1.24v9.76h-3.67v-19.5h3.67V137.99z"/>
		<path class="st2" d="M599.8,142.22h-7.31v4.95h8.58v3.06h-12.39v-18.48h12.37v3.08h-8.56v4.41h7.31V142.22z"/>
		<path class="st2" d="M605.05,143.24c0-2.16,0.48-3.86,1.44-5.12c0.96-1.25,2.28-1.88,3.95-1.88c1.47,0,2.64,0.56,3.52,1.69
			l0.24-1.43h3.22v19.02h-3.68v-6.46c-0.85,0.96-1.96,1.43-3.33,1.43c-1.63,0-2.94-0.63-3.91-1.9S605.05,145.53,605.05,143.24z
			 M608.72,143.5c0,1.31,0.23,2.31,0.69,3c0.46,0.69,1.11,1.03,1.95,1.03c1.13,0,1.92-0.45,2.39-1.35v-5.68
			c-0.46-0.86-1.24-1.3-2.36-1.3c-0.85,0-1.5,0.34-1.97,1.03S608.72,142.01,608.72,143.5z"/>
		<path class="st2" d="M631.35,148.84c-0.91,1.1-2.16,1.65-3.76,1.65c-1.47,0-2.6-0.42-3.37-1.27c-0.78-0.85-1.17-2.09-1.19-3.72v-9
			h3.67v8.88c0,1.43,0.65,2.15,1.96,2.15c1.24,0,2.1-0.43,2.56-1.3v-9.74h3.68v13.74h-3.45L631.35,148.84z"/>
		<path class="st2" d="M640.45,132.94c0-0.55,0.18-1,0.55-1.36c0.37-0.36,0.87-0.53,1.5-0.53c0.63,0,1.13,0.18,1.5,0.53
			s0.56,0.81,0.56,1.36c0,0.56-0.19,1.02-0.57,1.37c-0.38,0.36-0.87,0.53-1.49,0.53s-1.12-0.18-1.49-0.53
			C640.64,133.96,640.45,133.5,640.45,132.94z M644.35,150.23h-3.68V136.5h3.68V150.23z"/>
		<path class="st2" d="M654.57,133.12v3.38h2.35v2.69h-2.35v6.86c0,0.51,0.1,0.87,0.29,1.09s0.57,0.33,1.12,0.33
			c0.41,0,0.77-0.03,1.08-0.09v2.78c-0.72,0.22-1.46,0.33-2.22,0.33c-2.57,0-3.88-1.3-3.94-3.9v-7.4h-2.01v-2.69h2.01v-3.38H654.57z
			"/>
		<path class="st2" d="M666.9,145.04l2.54-8.54h3.94l-5.52,15.87l-0.3,0.72c-0.82,1.79-2.17,2.69-4.06,2.69
			c-0.53,0-1.08-0.08-1.62-0.24v-2.78l0.56,0.01c0.69,0,1.21-0.11,1.55-0.32c0.34-0.21,0.61-0.56,0.81-1.05l0.43-1.13l-4.81-13.77
			h3.95L666.9,145.04z"/>
	</g>
</g>
</svg>
