<svg width="48" height="48" viewBox="0 0 48 48" fill="none" xmlns="http://www.w3.org/2000/svg">
<g clip-path="url(#clip0_303_388)">
<path d="M16.4869 34.7643L16.7119 34.9893C17.3869 35.6653 17.3887 36.7584 16.7147 37.4325C16.3791 37.7681 15.9375 37.9368 15.4969 37.9368C15.0534 37.9368 14.6109 37.7671 14.2725 37.4287L7.51312 30.6693C6.96562 30.1218 6.615 29.4075 6.51844 28.6406L5.70469 22.3875C5.62969 21.8165 5.36813 21.284 4.95938 20.8753L0.703125 16.619" stroke="#4C5C2F" stroke-width="3" stroke-miterlimit="10" stroke-linecap="round" stroke-linejoin="round"/>
<path d="M14.1647 32.443L11.28 29.5583" stroke="#4C5C2F" stroke-width="3" stroke-miterlimit="10" stroke-linecap="round" stroke-linejoin="round"/>
<path d="M5.925 9.63L12.1275 15.8325C13.23 16.935 13.8966 18.3975 14.0044 19.9481L14.3812 27.075C14.4844 28.5056 13.4081 29.7413 11.9775 29.8341C11.9587 29.835 11.94 29.8359 11.9203 29.8359C11.4684 29.8359 11.0859 29.4844 11.0522 29.0259L10.5712 20.8097" stroke="#4C5C2F" stroke-width="3" stroke-miterlimit="10" stroke-linecap="round" stroke-linejoin="round"/>
<path d="M3.60187 7.30683L0.703125 4.40808" stroke="#4C5C2F" stroke-width="3" stroke-miterlimit="10" stroke-linecap="round" stroke-linejoin="round"/>
<path d="M36.7201 29.5582L31.2885 34.9898C30.6131 35.6652 30.6116 36.7587 31.2851 37.4322C31.9586 38.1057 33.0521 38.1042 33.7275 37.4288L40.4866 30.6697C41.0346 30.1217 41.3849 29.4075 41.4819 28.6408L42.2957 22.3876C42.3701 21.816 42.6323 21.2839 43.041 20.8753L47.2969 16.6194" stroke="#4C5C2F" stroke-width="3" stroke-miterlimit="10" stroke-linecap="round" stroke-linejoin="round"/>
<path d="M33.7069 25.4063L33.6188 27.075C33.5156 28.5056 34.5919 29.7413 36.0225 29.8341C36.0413 29.835 36.06 29.8359 36.0797 29.8359C36.5316 29.8359 36.9141 29.4844 36.9478 29.0259L37.4288 20.8097" stroke="#4C5C2F" stroke-width="3" stroke-miterlimit="10" stroke-linecap="round" stroke-linejoin="round"/>
<path d="M33.8803 22.125L33.9956 19.9481C34.1034 18.3975 34.77 16.935 35.8725 15.8325L47.2969 4.40808" stroke="#4C5C2F" stroke-width="3" stroke-miterlimit="10" stroke-linecap="round" stroke-linejoin="round"/>
<path d="M19.5633 37.4531V40.3733C19.5633 41.6619 18.6278 42.76 17.3556 42.9649L10.9444 43.9972C9.05906 44.3007 7.45866 45.5448 6.69938 47.2969" stroke="#4C5C2F" stroke-width="2" stroke-miterlimit="10" stroke-linecap="round" stroke-linejoin="round"/>
<path d="M28.4367 37.4531V40.3733C28.4367 41.6619 29.3722 42.76 30.6444 42.9649L37.0555 43.9972C38.9408 44.3007 40.5413 45.5448 41.3005 47.2969" stroke="#4C5C2F" stroke-width="2" stroke-miterlimit="10" stroke-linecap="round" stroke-linejoin="round"/>
<path d="M31.1941 35.0753C29.0295 37.0268 26.165 39.1636 24 39.1636C21.835 39.1636 18.9706 37.0268 16.8059 35.0753" stroke="#4C5C2F" stroke-width="2" stroke-miterlimit="10" stroke-linecap="round" stroke-linejoin="round"/>
<path d="M22.215 29.0156C23.3088 29.4225 24.4025 29.4225 25.4962 29.0156" stroke="#4C5C2F" stroke-width="2" stroke-miterlimit="10" stroke-linecap="round" stroke-linejoin="round"/>
<path d="M34.7447 2.86597C35.1712 3.11628 35.5866 3.37222 35.9831 3.62722C38.1834 5.03909 39.1959 7.72878 38.4938 10.2469L38.3625 10.6932" stroke="#4C5C2F" stroke-width="2" stroke-miterlimit="10" stroke-linecap="round" stroke-linejoin="round"/>
<path d="M24 1.34813C24.0516 1.34719 25.9256 0.703125 28.8319 0.703125C29.7253 0.703125 30.7519 0.975 31.8094 1.39781" stroke="#4C5C2F" stroke-width="2" stroke-miterlimit="10" stroke-linecap="round" stroke-linejoin="round"/>
<path d="M34.1249 19.0379C31.3244 14.6994 28.2654 11.7509 24 10.5469" stroke="#4C5C2F" stroke-width="2" stroke-miterlimit="10" stroke-linecap="round" stroke-linejoin="round"/>
<path d="M39.3431 12.3618C38.9369 11.5186 38.3313 10.7635 37.5497 10.1723L33.7069 7.26562" stroke="#4C5C2F" stroke-width="2" stroke-miterlimit="10" stroke-linecap="round" stroke-linejoin="round"/>
<path d="M13.8781 19.0523C16.698 14.7462 19.8369 11.9218 24 10.5469C27.0108 4.52018 22.2693 5.71278 24 1.34834C23.987 1.39868 22.0744 0.703247 19.1681 0.703247C17.0755 0.703247 14.2503 2.19368 12.017 3.62722C9.81685 5.03947 8.80378 7.7284 9.50653 10.2466L9.6375 10.6932" stroke="#4C5C2F" stroke-width="2" stroke-miterlimit="10" stroke-linecap="round" stroke-linejoin="round"/>
<path d="M8.76131 12.1554C9.16406 11.3954 9.73313 10.715 10.4504 10.1724L14.2931 7.26562" stroke="#4C5C2F" stroke-width="2" stroke-miterlimit="10" stroke-linecap="round" stroke-linejoin="round"/>
<path d="M31.5875 20.4843C29.8823 19.9532 28.347 19.5469 26.4338 20.4843" stroke="#4C5C2F" stroke-width="2" stroke-miterlimit="10" stroke-linecap="round" stroke-linejoin="round"/>
<path d="M16.4125 20.4843C18.1177 19.9532 19.653 19.5469 21.5662 20.4843" stroke="#4C5C2F" stroke-width="2" stroke-miterlimit="10" stroke-linecap="round" stroke-linejoin="round"/>
<path d="M26.7292 32.8081C25.9186 33.2098 25.0811 33.1687 24.2341 32.8527C23.9592 32.7501 23.6584 32.7501 23.3835 32.8527C22.5365 33.1687 21.699 33.2098 20.8884 32.8081" stroke="#4C5C2F" stroke-width="2" stroke-miterlimit="10" stroke-linecap="round" stroke-linejoin="round"/>
<path d="M16.7327 24.4524C18.0135 24.9367 19.2943 24.9367 20.5751 24.4524" stroke="#4C5C2F" stroke-width="2" stroke-miterlimit="10" stroke-linecap="round" stroke-linejoin="round"/>
<path d="M31.2673 24.4524C29.9865 24.9367 28.7057 24.9367 27.4249 24.4524" stroke="#4C5C2F" stroke-width="2" stroke-miterlimit="10" stroke-linecap="round" stroke-linejoin="round"/>
</g>
<defs>
<clipPath id="clip0_303_388">
<rect width="48" height="48" fill="white"/>
</clipPath>
</defs>
</svg>
