<svg id="Capa_1" enable-background="new 0 0 510.701 510.701" height="512" viewBox="0 0 510.701 510.701" width="512" xmlns="http://www.w3.org/2000/svg"><g><g><path d="m116.451 94.694-26.29 11.29c-60.94 26.16-87.75 97.86-58.93 157.57v.01 56.147l33.253-21.962 72.171-71.353 11.092 91.14 41.137 4.972 11.786-182.343z" fill="#ffdfcf"/><path d="m75.197 259.25h76.026v138.712h-76.026z" fill="#ffdfcf"/><path d="m158.114 189.611-41.162 31.236-31.964 27.3-7.09 20.543 7.09 20.061 13.531-3.632 17.965-21.464 52.708-33.145z" fill="#ffeee6"/><path d="m419.541 105.984-26.29-11.29-66.891 81.789-6.307 119.539 73.198 17.732v17.84c0 8.5 2.19 16.87 6.36 24.28l3.72 6.62 59.992 13.126c7.784 1.703 15.148-4.224 15.148-12.192v-99.864-.01c28.82-59.71 2.01-131.41-58.93-157.57z" fill="#ffdfcf"/><path d="m393.251 206.962v106.792 17.84c0 8.5 2.19 16.87 6.36 24.28l3.184 5.667c6.849-14.944 10.456-31.338 10.456-47.787v-86.792c-.001-11.046-8.955-20-20-20z" fill="#ffcebf"/><path d="m352.587 259.25h75.809v157.385h-75.809z" fill="#ffdfcf"/><path d="m405.063 231.962-11.312-9.661-57.63-41.44-11.93 36.77 70.03 47.48 10.842 12.951 10.249 1.518 1.917-31.142z" fill="#ffeee6"/><path d="m378.251 88.254c-4.25-1.82-8.32-4.01-12.16-6.55-3.84-2.53-7.46-5.41-10.8-8.6-15.4-14.67-24.11-35.01-24.11-56.28v-.834c0-5.399-4.377-9.775-9.776-9.775h-133.109c-5.399 0-9.776 4.376-9.776 9.775v.834c0 10.63-2.18 21.04-6.28 30.61-4.1 9.58-10.13 18.34-17.83 25.67-6.69 6.38-14.46 11.51-22.96 15.15l-15 6.44v114.14 104.92c0 15.31 3.72 30.4 10.84 43.96l4.55 8.67c.81 1.54 1.18 3.26 1.07 4.99l-6.791 107.182c-.737 11.625 8.494 21.458 20.142 21.458h102.385l1.771-2.021h11.342l1.887 2.021h99.791c11.649 0 20.879-9.833 20.142-21.458l-6.791-107.182c-.11-1.73.26-3.45 1.07-4.99l4.55-8.67c7.12-13.56 10.84-28.65 10.84-43.96v-104.92-114.14z" fill="#ffdfcf"/><path d="m331.181 16.824v-.834c0-5.399-4.377-9.776-9.776-9.776h-133.109c-5.399 0-9.776 4.377-9.776 9.776v.834c0 10.63-2.18 21.04-6.28 30.61-4.1 9.58-10.13 18.34-17.83 25.67-6.69 6.38-14.46 11.51-22.96 15.15l-15 6.44-26.29 11.29c-60.94 26.16-87.75 97.86-58.93 157.57v.01 99.864c0 7.968 7.365 13.895 15.148 12.192l29.123-6.372v-84.928-.01c-28.82-59.71-2.01-131.41 58.93-157.57l37.979-16.351c8.5-3.64 16.27-8.77 22.96-15.15 7.7-7.33 13.73-16.09 17.83-25.67 1.249-2.916 2.321-7.884 3.206-13.38 2.584-16.043 16.438-27.84 32.689-27.84l82.942-.006c-.568-3.792-.856-7.636-.856-11.519z" fill="#ffcebf"/><path d="m172.246 478.457 6.79-107.672c.11-1.738-.26-3.466-1.07-5.013l-4.55-8.71c-7.12-13.622-10.84-28.781-10.84-44.161v-59.813c0-25.474-20.651-46.126-46.126-46.126v105.939c0 15.38 3.72 30.539 10.84 44.161l4.55 8.71c.81 1.547 1.18 3.275 1.07 5.013l-6.79 107.672c-.737 11.678 8.494 21.557 20.142 21.557h46.126c-11.649 0-20.879-9.878-20.142-21.557z" fill="#ffcebf"/><g><g><path d="m498.924 422.626-4.453-8.564c-1.16-2.24-1.77-4.73-1.77-7.26v-83.82c0-10.26-4.49-20-12.29-26.67l-75.348-64.349v46.1l19.188 22.919c1.89 2.27 2.71 5.25 2.24 8.17l-9.65 59.27c-.79 4.82-4.96 8.37-9.85 8.37h-10.22c-3.51 0-6.76-1.84-8.56-4.84l-15.09-25.16c-5.87-9.77-18.72-12.64-28.18-6.29-5.66 3.79-8.82 10.07-8.82 16.54 0 2.63.52 5.3 1.61 7.84l20.66 48.21c8.35 19.5 23.62 35.24 42.86 44.18l10.18 4.73 21.315 28.812c4.68 6.326 14.037 6.633 19.122.628l45.346-53.553c3.615-4.269 4.291-10.3 1.71-15.263z" fill="#ffeee6"/></g><g><path d="m165.763 339.046c-9.463-6.351-22.316-3.482-28.179 6.291l-15.095 25.158c-1.803 3.004-5.05 4.843-8.554 4.843h-10.225c-4.891 0-9.06-3.546-9.846-8.373l-9.65-59.268c-.475-2.917.342-5.897 2.24-8.164l12.065-14.415-13.53-36.972-54.694 46.715c-7.8 6.662-12.291 16.404-12.291 26.662v83.828c0 2.527-.609 5.017-1.774 7.259l-5.54 10.653c-1.923 3.697-1.419 8.19 1.274 11.371l49.922 58.956c3.528 4.167 10.02 3.954 13.267-.436l24.116-32.601 10.182-4.733c19.243-8.944 34.507-24.677 42.865-44.182l20.656-48.208c3.771-8.804.744-19.046-7.209-24.384z" fill="#ffeee6"/></g></g></g><g><path d="m375.788 96.435 41.299 17.729c8.71 3.739 16.869 8.565 24.253 14.343 1.372 1.074 3 1.594 4.617 1.594 2.228 0 4.433-.988 5.911-2.878 2.553-3.262 1.978-7.976-1.284-10.528-8.402-6.575-17.682-12.064-27.579-16.313l-41.3-17.73c-7.697-3.303-14.676-7.908-20.742-13.688-13.846-13.193-21.786-31.727-21.786-50.85v-10.614c0-4.143-3.357-7.5-7.5-7.5s-7.5 3.357-7.5 7.5v10.613c0 23.207 9.637 45.699 26.438 61.709 7.363 7.015 15.832 12.604 25.173 16.613z"/><path d="m509.845 427.368-8.718-16.766c-.607-1.168-.929-2.481-.929-3.799v-83.827c0-11.941-4.998-23.256-13.747-31.306.003-.093.014-.184.014-.278l.001-24.859c18.902-40.602 14.444-88.231-11.784-124.721-2.418-3.366-7.107-4.13-10.467-1.713-3.364 2.417-4.131 7.104-1.713 10.467 23.356 32.495 27.076 75.035 9.708 111.021-.49 1.017-.745 2.131-.745 3.26v13.967l-70.216-59.972v-8.718c0-4.143-3.357-7.5-7.5-7.5s-7.5 3.357-7.5 7.5v104.918c0 10.252-1.847 20.477-5.381 30.089l-1.321-2.202c-3.903-6.506-10.132-10.999-17.537-12.652-7.404-1.648-14.952-.234-21.251 3.994-10.938 7.34-15.111 21.455-9.924 33.564l20.657 48.208c5.339 12.459 13.257 23.464 23.11 32.412-.001.169-.004.337.007.508l3.344 52.81c.252 3.973 3.552 7.026 7.479 7.026.159 0 .319-.005.48-.015 4.134-.262 7.273-3.825 7.012-7.959l-2.584-40.807c2.509 1.463 5.093 2.818 7.75 4.053l8.45 3.929 29.339 39.66c1.471 1.989 3.738 3.041 6.035 3.04 1.55 0 3.113-.479 4.454-1.471 3.33-2.463 4.033-7.159 1.569-10.489l-30.475-41.196c-.745-1.008-1.731-1.812-2.868-2.341l-10.183-4.734c-17.594-8.177-31.49-22.501-39.132-40.334l-20.657-48.207c-2.349-5.484-.459-11.878 4.495-15.202 2.854-1.915 6.273-2.557 9.625-1.809 3.354.748 6.175 2.783 7.942 5.729l15.096 25.159c3.141 5.232 8.882 8.483 14.984 8.483h10.226c8.61 0 15.864-6.168 17.248-14.667l1.533-9.419c.666-4.089-2.109-7.942-6.197-8.607-4.09-.664-7.942 2.109-8.607 6.197l-1.533 9.418c-.196 1.204-1.224 2.078-2.443 2.078h-10.226c-.864 0-1.678-.461-2.122-1.201l-4.3-7.167c7.133-14.182 10.907-30.003 10.907-45.88v-29.847l17.246 20.605c.499.596.714 1.378.589 2.146l-2.912 17.887c-.666 4.088 2.108 7.942 6.197 8.607.408.066.813.099 1.214.099 3.611 0 6.795-2.615 7.394-6.296l2.912-17.888c.825-5.073-.593-10.243-3.892-14.183l-28.748-34.346v-23.256l74.286 63.448c6.141 5.244 9.662 12.884 9.662 20.959v83.827c0 3.716.906 7.423 2.62 10.719l8.718 16.766c1.336 2.569 3.951 4.042 6.66 4.042 1.166 0 2.349-.273 3.454-.848 3.675-1.91 5.106-6.438 3.195-10.113z"/><path d="m310.151 305.566c-13.611 12.235-21.417 29.742-21.417 48.031 0 10.469 2.565 20.868 7.419 30.074 1.344 2.549 3.947 4.004 6.642 4.004 1.179 0 2.376-.279 3.491-.867 3.664-1.933 5.068-6.469 3.137-10.133-3.722-7.058-5.688-15.038-5.688-23.078 0-14.04 5.994-27.481 16.444-36.877 3.081-2.769 3.333-7.511.563-10.591-2.766-3.079-7.509-3.333-10.591-.563z"/><path d="m339.967 290.409c-4.054.853-6.648 4.829-5.797 8.883.743 3.533 3.859 5.959 7.332 5.959.512 0 1.03-.053 1.551-.162 6.271-1.318 12.938-1.402 19.26-.244 4.067.744 7.982-1.949 8.729-6.024.747-4.074-1.95-7.982-6.024-8.729-8.229-1.509-16.881-1.401-25.051.317z"/><path d="m179.024 0c-4.143 0-7.5 3.357-7.5 7.5v10.613c0 19.123-7.94 37.656-21.786 50.85-6.064 5.777-13.043 10.383-20.743 13.688l-41.299 17.729c-31.368 13.466-55.229 38.491-67.185 70.466-11.752 31.431-10.418 65.342 3.723 95.688v24.858c0 .089.01.176.013.264-8.742 7.905-13.745 19.103-13.745 30.929v13.298c0 4.143 3.357 7.5 7.5 7.5s7.5-3.357 7.5-7.5v-13.298c0-7.827 3.413-15.232 9.365-20.315l74.583-63.702v23.256l-28.748 34.345c-3.299 3.94-4.717 9.11-3.892 14.185l9.65 59.268c1.384 8.499 8.638 14.667 17.248 14.667h10.226c6.104 0 11.846-3.251 14.984-8.484l15.096-25.157c1.768-2.947 4.588-4.982 7.942-5.731 3.354-.748 6.771-.105 9.626 1.81 4.953 3.324 6.843 9.718 4.494 15.201l-20.657 48.208c-7.642 17.834-21.539 32.158-39.133 40.336l-10.182 4.732c-1.137.528-2.123 1.333-2.868 2.341l-30.475 41.196c-2.464 3.33-1.761 8.026 1.569 10.489 1.341.993 2.904 1.472 4.454 1.471 2.297 0 4.564-1.052 6.035-3.04l29.339-39.66 8.449-3.927c2.657-1.235 5.241-2.59 7.751-4.054l-2.584 40.806c-.262 4.134 2.878 7.697 7.012 7.959.161.01.321.015.48.015 3.926 0 7.227-3.054 7.479-7.026l3.344-52.81c.011-.171.007-.339.006-.508 9.852-8.948 17.771-19.953 23.11-32.412l20.657-48.209c5.188-12.108 1.015-26.224-9.923-33.563-6.3-4.228-13.849-5.646-21.253-3.993-7.405 1.652-13.634 6.146-17.536 12.653l-1.321 2.201c-3.534-9.614-5.381-19.838-5.381-30.091v-104.918c0-4.143-3.357-7.5-7.5-7.5s-7.5 3.357-7.5 7.5v8.718l-70.217 59.973v-13.968c0-1.129-.255-2.243-.745-3.26-13.042-27.022-14.437-57.382-3.928-85.486s31.484-50.101 59.056-61.937l41.298-17.729c9.344-4.011 17.813-9.6 25.174-16.612 16.802-16.011 26.438-38.502 26.438-61.709v-10.614c0-4.143-3.357-7.5-7.5-7.5zm-62.966 368.089c-.444.741-1.258 1.201-2.122 1.201h-10.226c-1.22 0-2.247-.874-2.443-2.077l-9.65-59.267c-.125-.769.09-1.551.589-2.147l17.246-20.604v29.848c0 15.877 3.773 31.698 10.907 45.88z"/><path d="m18.003 360.348c-4.143 0-7.5 3.357-7.5 7.5v39.163c0 1.182-.288 2.36-.833 3.408l-8.813 16.949c-1.911 3.675-.48 8.203 3.194 10.114 1.105.575 2.288.848 3.454.848 2.708 0 5.324-1.473 6.66-4.042l8.813-16.95c1.651-3.177 2.524-6.748 2.524-10.327v-39.163c.001-4.143-3.356-7.5-7.499-7.5z"/><path d="m200.55 305.566c-3.08-2.771-7.823-2.517-10.591.563-2.77 3.08-2.518 7.822.563 10.591 10.45 9.396 16.444 22.837 16.444 36.877 0 8.04-1.967 16.021-5.688 23.078-1.932 3.664-.527 8.2 3.137 10.133 1.116.588 2.312.867 3.491.867 2.694 0 5.298-1.456 6.642-4.004 4.854-9.206 7.419-19.605 7.419-30.074 0-18.288-7.806-35.795-21.417-48.031z"/><path d="m145.684 290.091c-4.074.747-6.771 4.655-6.024 8.729s4.661 6.775 8.729 6.024c6.323-1.158 12.988-1.073 19.26.244.521.109 1.039.162 1.551.162 3.472 0 6.589-2.426 7.332-5.959.852-4.054-1.743-8.03-5.797-8.883-8.171-1.717-16.823-1.825-25.051-.317z"/><path d="m256.147 0c-4.143 0-7.5 3.357-7.5 7.5v17.538c0 4.143 3.357 7.5 7.5 7.5s7.5-3.357 7.5-7.5v-17.538c0-4.143-3.357-7.5-7.5-7.5z"/><path d="m256.147 67.12c-4.143 0-7.5 3.357-7.5 7.5v17.537c0 4.143 3.357 7.5 7.5 7.5s7.5-3.357 7.5-7.5v-17.537c0-4.142-3.357-7.5-7.5-7.5z"/><path d="m256.147 134.239c-4.143 0-7.5 3.357-7.5 7.5v17.537c0 4.143 3.357 7.5 7.5 7.5s7.5-3.357 7.5-7.5v-17.537c0-4.142-3.357-7.5-7.5-7.5z"/><path d="m256.147 201.358c-4.143 0-7.5 3.357-7.5 7.5v17.538c0 4.143 3.357 7.5 7.5 7.5s7.5-3.357 7.5-7.5v-17.538c0-4.142-3.357-7.5-7.5-7.5z"/><path d="m256.147 268.479c-4.143 0-7.5 3.357-7.5 7.5v17.537c0 4.143 3.357 7.5 7.5 7.5s7.5-3.357 7.5-7.5v-17.537c0-4.143-3.357-7.5-7.5-7.5z"/><path d="m256.147 335.598c-4.143 0-7.5 3.357-7.5 7.5v17.538c0 4.143 3.357 7.5 7.5 7.5s7.5-3.357 7.5-7.5v-17.538c0-4.143-3.357-7.5-7.5-7.5z"/><path d="m256.147 402.718c-4.143 0-7.5 3.357-7.5 7.5v17.537c0 4.143 3.357 7.5 7.5 7.5s7.5-3.357 7.5-7.5v-17.537c0-4.143-3.357-7.5-7.5-7.5z"/><path d="m256.147 469.837c-4.143 0-7.5 3.357-7.5 7.5v17.537c0 4.143 3.357 7.5 7.5 7.5s7.5-3.357 7.5-7.5v-17.537c0-4.143-3.357-7.5-7.5-7.5z"/></g></g></svg>