<svg height="512" viewBox="0 0 512 512" width="512" xmlns="http://www.w3.org/2000/svg"><g id="_13_Muscle_pain" data-name="13 Muscle pain"><path d="m476.29 357.56-62.29-78.77a65.26 65.26 0 0 0 -33.82-22.42l-72.42-20-79.16-5.13-53.48-32.32-59.55 63c24.16 27.5 43.62 46.94 43.62 46.94l16.71 195.14h188.66l10.11-148.31 46.82 46.89-56.93 101.42h60.63l54-82.66a54.63 54.63 0 0 0 -2.9-63.78z" fill="#ffc89f"/><path d="m403.92 384.98 10.6 10.63 53.07-49.04-9.33-11.8z" fill="#f4ba92"/><path d="m403.92 385 54.34-50.21-44.29-56a65.26 65.26 0 0 0 -33.82-22.42l-72.42-20-79.16-5.13-53.48-32.32-59.55 63c24.16 27.5 43.62 46.94 43.62 46.94l16.74 195.14h188.66l10.11-148.31z" fill="#348fd9"/><g fill="#f4b184"><path d="m228.57 207.3v28.56a39.65 39.65 0 0 0 39.65 39.65 39.65 39.65 0 0 0 39.64-39.65v-28.56z"/><path d="m193 100.89a26.81 26.81 0 1 0 6.84 52.73c-4.84-25.2-6.84-52.73-6.84-52.73z"/><path d="m343.47 100.89a26.81 26.81 0 1 1 -6.83 52.73c4.76-25.2 6.83-52.73 6.83-52.73z"/></g><path d="m298.48 74.82a8.33 8.33 0 0 0 -11.37-1.41c-16.68 12.29-62.38 42.25-94.24 27.48-25.08-11.62-2.82-77.4 41.92-89.33 48-12.8 71.11 13 71.11 13s18.05-2.3 30.9 11.62c17.75 19.23 21 57.82 6.58 64.7-14.93 7.12-35.56-14.73-44.9-26.06z" fill="#848484"/><path d="m228.57 225.23c13.39 9.29 29.38 14.14 39.65 14.14s26.25-4.85 39.64-14.14v-17.93h-79.29z" fill="#eda370"/><path d="m298.48 74.82a8.33 8.33 0 0 0 -11.37-1.41c-16.64 12.26-62.15 42.1-94 27.58s4.28 56.82 14.66 81.87 43.38 38.49 60.49 38.49 50.1-13.44 60.48-38.49 14.63-81.86 14.63-81.86l-.07-.09c-14.92 7.02-35.49-14.78-44.82-26.09z" fill="#ffc89f"/><path d="m343.3 100.92c-14.92 7-35.49-14.79-44.82-26.1a8.33 8.33 0 0 0 -11.37-1.41c-16.64 12.26-62.15 42.1-94 27.58s.5 6.69 1.58 16.48a64 64 0 0 0 17.63 2.4c27.54 0 56.4-15.72 75.09-28.32a5 5 0 0 1 6.48.75c15.42 16.58 29.92 25 43.19 25a30.6 30.6 0 0 0 4.81-.38c1-9.48 1.52-15.9 1.52-15.9z" fill="#f4ba92"/><path d="m115.54 261.87 59.55-63-41.09-24.81a348.62 348.62 0 0 0 73.68 8.81v-.11c-3.15-7.63-5.73-18.17-7.8-29.15h-.09a26.8 26.8 0 0 1 -32.91-32.12c-72.01-26.76-127.21-40.85-137.88-26.49-23.53 31.6 40.16 114.08 86.54 166.87z" fill="#f4b184"/><path d="m152.56 116.27-.39 2.31a41.79 41.79 0 0 0 32.54 50.1 5.07 5.07 0 0 1 3.93 3.68q1.4 5.43 2.89 9.93 7.83.47 16.12.58l.06-.06c-3.16-7.63-5.75-18.2-7.82-29.2a26.8 26.8 0 0 1 -33-32.1q-7.29-2.71-14.33-5.24z" fill="#eda370"/><path d="m246.63 130.53a7.52 7.52 0 0 0 -10.91-10.34 16.26 16.26 0 0 1 -8.26 3.33 7.51 7.51 0 0 0 1.06 15 8 8 0 0 0 1.08-.08c10.78-1.6 16.4-7.27 17.03-7.91z"/><path d="m309 123.52c-5.48-.79-8.24-3.3-8.26-3.33a7.52 7.52 0 0 0 -10.91 10.34c.61.64 6.25 6.31 17 7.86a7.85 7.85 0 0 0 1.08.08 7.51 7.51 0 0 0 1.06-15z"/><path d="m269 153.66c-16.43 0-22.55 13.24-23.48 20.23 0 0-.1.76-.1 1.16a7.52 7.52 0 0 0 15 .94c.36-2.19 1.91-7.3 8.6-7.3s8.25 5.11 8.61 7.3a7.51 7.51 0 0 0 15-.94c0-.4-.09-1.16-.09-1.16-1.03-6.99-7.15-20.23-23.54-20.23z"/><path d="m482.61 353.1-62.44-78.92a72.44 72.44 0 0 0 -37.78-25l-66.91-18.49v-19.69c9.35-7.21 16.48-16 20.4-25.4a144.45 144.45 0 0 0 6.9-23.81h.87a34.37 34.37 0 0 0 13.46-66 36.66 36.66 0 0 0 2.14-7.22c3.07-16-1.76-41.68-16.77-57.94-11.6-12.57-26.58-14.19-33.55-14.19h-.07c-7.95-6.93-33-24.12-76-12.64-32.68 8.71-55.49 43.77-57.88 71.26-.72 8.31.48 15.53 3.36 21.22a34.59 34.59 0 0 0 -16 15.31c-35.61-13-64.59-21.92-86.21-26.46-29.82-6.26-46.36-4.69-53.64 5.08-17.35 23.32-.37 67.23 51.91 134.23 32.42 41.56 68.6 78.99 77.33 87.83l16.54 192.86a7.52 7.52 0 0 0 7.49 6.87h249.76a7.52 7.52 0 0 0 6.29-3.4l54.1-82.82a62.19 62.19 0 0 0 -3.3-72.68zm-160.61-173.23c-5.28 12.74-18.82 24.08-36.21 30.35a7.51 7.51 0 0 0 5.09 14.14 95.21 95.21 0 0 0 9.58-4.05v15.53a32.21 32.21 0 0 1 -64.41 0v-15.53a96.38 96.38 0 0 0 9.59 4.05 7.51 7.51 0 0 0 5.09-14.14c-17.4-6.27-30.93-17.61-36.22-30.35-7.14-17.22-11.35-51.18-13.14-68.74a58.8 58.8 0 0 0 10.72 1c30.87 0 64.44-21.83 79.56-33a.81.81 0 0 1 1.13.15c18.25 22.12 32.28 29.39 42.53 30.18-1.69 16.97-5.94 52.63-13.31 70.41zm-101 38-49.39-29.87c9.7 1.1 20.12 1.87 31.17 2.15a66.75 66.75 0 0 0 18.22 20.85zm142-90.41a19.37 19.37 0 0 1 -17.37 19.24c2.43-14.56 4-28.75 4.8-37.33a19.35 19.35 0 0 1 12.57 18.09zm-173.07-51c2-22.53 21.22-51.23 46.77-58a92.65 92.65 0 0 1 23.91-3.46c26.37 0 39.16 13.43 39.8 14.12a7.21 7.21 0 0 0 6.49 2.44c.59-.06 14.57-1.51 24.54 9.29 11.09 12 15.41 32.66 13.05 44.9-.8 4.17-2.36 7.18-4.17 8-7 3.34-21.12-6.12-36-24.11a15.86 15.86 0 0 0 -21.6-2.64c-13.09 9.65-58 40.1-86.8 26.77-6.52-3-6.37-13.14-6-17.36zm-3.85 33c.83 8.58 2.38 22.77 4.8 37.33a19.33 19.33 0 0 1 -4.8-37.33zm-151.52-10.23c.49-.65 5.72-6.22 38.49.66 21.19 4.44 49.93 13.31 85.46 26.35v1.22a34.41 34.41 0 0 0 34.37 34.37h.87c1 4.58 2.06 9 3.24 13.11-60.18-2.68-100.21-20.3-100.87-20.59a7.51 7.51 0 0 0 -6.22 13.65c1.08.49 16 7.11 41.08 13l32.1 19.4-47.57 50.29c-9.52-11-19.56-23-29.25-35.46-44.9-57.53-63.74-99.81-51.7-116zm131.91 209a7.48 7.48 0 0 0 -2.18-4.67c-.26-.27-17.17-17.21-38.83-41.55l50.78-53.68 44.76 27.1v.41a47.23 47.23 0 0 0 93.37 10.1l64 17.68a57.53 57.53 0 0 1 30 19.89l40.06 50.63-44 40.68-24.19-24.23a7.51 7.51 0 0 0 -12.81 4.8l-9.68 141.61h-175.1zm246 95.87-37.94 67.59 6.75-98.83zm60.86 13.41-51.88 79.49h-43.85l50.76-90.42a7.51 7.51 0 0 0 -1.24-9l-12.12-12.12 42.79-39.46 13 16.47a47.19 47.19 0 0 1 2.54 55.09z"/><path d="m107.68 68.94a7.51 7.51 0 0 0 7.57-.08l6.2-3.7v9.65a7.51 7.51 0 0 0 7.49 7.54 7.52 7.52 0 0 0 7.52-7.49l.07-22.93a7.52 7.52 0 0 0 -11.36-6.48l-6.22 3.71v-11.83a7.52 7.52 0 0 0 -7.5-7.53 7.51 7.51 0 0 0 -7.52 7.5v25.1a7.5 7.5 0 0 0 3.75 6.54z"/><path d="m84.77 304.8a7.51 7.51 0 0 0 -7.57.08l-6.2 3.71v-11.84a7.52 7.52 0 0 0 -7.5-7.53 7.52 7.52 0 0 0 -7.51 7.5v25.1a7.52 7.52 0 0 0 11.37 6.47l6.2-3.7v9.65a7.52 7.52 0 0 0 7.44 7.54 7.51 7.51 0 0 0 7.51-7.49l.08-22.94a7.51 7.51 0 0 0 -3.82-6.55z"/><path d="m132.73 401.33a7.51 7.51 0 0 0 -7.57.08l-6.22 3.71v-11.84a7.52 7.52 0 0 0 -7.5-7.53 7.52 7.52 0 0 0 -7.52 7.5v25.1a7.51 7.51 0 0 0 11.36 6.47l6.2-3.7v9.65a7.52 7.52 0 0 0 7.49 7.54 7.52 7.52 0 0 0 7.52-7.49l.07-22.93a7.52 7.52 0 0 0 -3.83-6.56z"/><path d="m377 176.28a7.51 7.51 0 0 0 -7.51 7.5v25.09a7.52 7.52 0 0 0 11.37 6.47l6.19-3.7v9.65a7.52 7.52 0 0 0 7.49 7.54 7.51 7.51 0 0 0 7.51-7.49l.08-22.93a7.52 7.52 0 0 0 -11.37-6.48l-6.22 3.71v-11.83a7.52 7.52 0 0 0 -7.5-7.53z"/></g></svg>