<svg xmlns="http://www.w3.org/2000/svg" version="1.1" xmlns:xlink="http://www.w3.org/1999/xlink" width="512" height="512" x="0" y="0" viewBox="0 0 100 100" style="enable-background:new 0 0 512 512" xml:space="preserve" class=""><g><path d="M81.71 42.364c-1.52-.377-2.18-2.156-1.232-3.404 2.323-3.059 7.757-8.178 12.81-11.225 1.861-1.078 3.037-3.036 3.037-5.093 0-4.211-4.31-7.15-8.227-5.387-11.22 4.933-31.752 19.084-32.213 44.195-.216 11.8 9.208 21.902 21.01 21.815C88.379 83.181 97.5 73.91 97.5 62.503c0-9.78-6.736-17.894-15.79-20.139zM28.245 42.36c-1.525-.374-2.187-2.156-1.238-3.405 2.324-3.058 7.756-8.175 12.807-11.22 1.861-1.078 3.037-3.036 3.037-5.093 0-4.211-4.31-7.15-8.227-5.387C23.36 22.25 2.5 36.647 2.5 62.405c0 11.557 9.304 20.86 20.763 20.86s20.86-9.303 20.86-20.86c0-9.698-6.745-17.808-15.878-20.045z" fill="#4c5c2f" opacity="0.5490196078431373" data-original="#000000"></path></g></svg>