<svg xmlns="http://www.w3.org/2000/svg" width="81" height="90" fill="none"><path fill="#5A766A" fill-rule="evenodd" d="M27.078 6.815c-7.692 2.141-15.746 3.22-23.559 4.21-1.683.208-3.245-.95-3.365-2.58-.24-1.632.962-3.124 2.525-3.332 7.572-.952 15.384-1.971 22.716-4.032 1.563-.447 3.246.473 3.727 2.056.48 1.582-.481 3.23-2.044 3.678ZM50.786 37.429c-12.468 12.6-26.51 23.578-38.735 36.516-1.09 1.209-3.026 1.274-4.237.146-1.21-1.13-1.33-3.028-.12-4.237C19.919 56.88 33.96 45.864 46.428 33.227c1.21-1.18 3.147-1.196 4.358-.036 1.089 1.16 1.21 3.058 0 4.238ZM74.058 86.257l1.024-21.915c0-1.673 1.366-2.965 2.96-2.884 1.592.083 2.73 1.507 2.73 3.181l-1.024 21.948c-.114 1.673-1.48 2.957-3.073 2.866-1.479-.091-2.73-1.524-2.617-3.196Z" clip-rule="evenodd"/></svg>